<?xml version="1.0" encoding="utf-8"?>
<!-- Generator: Adobe Illustrator 26.5.0, SVG Export Plug-In . SVG Version: 6.00 Build 0)  -->
<svg version="1.1" xmlns="http://www.w3.org/2000/svg" xmlns:xlink="http://www.w3.org/1999/xlink" x="0px" y="0px"
	 viewBox="0 0 1133.86 1133.86" style="enable-background:new 0 0 1133.86 1133.86;" xml:space="preserve">
<style type="text/css">
	.st0{fill:#005A92;}
	.st1{fill:#A0A0A0;}
	.st2{fill:#427942;}
	.st3{fill:#FFFFFF;}
	.st4{fill:#BB9B32;}
	.st5{fill:#BB9B32;stroke:#BB9B32;stroke-miterlimit:10;}
</style>
<g id="Camada_1">
</g>
<g id="Camada_2">
	<path class="st0" d="M193.33,360.9c-65.79,0-119.09,71.63-119.09,160.05s53.37,160.05,119.09,160.05s119.09-71.63,119.09-160.05
		S259.13,360.9,193.33,360.9L193.33,360.9z"/>
	<path class="st1" d="M194.22,360.9c-65.79,0-119.09,71.63-119.09,160.05s53.3,160.05,119.09,160.05s119.09-71.63,119.09-160.05
		S260.01,360.9,194.22,360.9L194.22,360.9z M274.8,411.31l-32.23,38.66l-19.44-1.03l-5.91-79.32c0,0-0.37,3.62-1.48,3.1
		C237.39,378.94,260.09,389.65,274.8,411.31L274.8,411.31z M258.09,483.98c-11.53,12.05-5.91,16.71-21.66,19.74
		c-15.67,3.03-26.39,6.58-27.72,11.09c0,0.07-2.88,4.29-2.88,4.36l2.29,17.45c0,0.3,0.15,0.52,0.44,0.59
		c25.95,6.51,45.17,29.64,45.17,57.14c0,1.11,2.44-1.7,2.37-0.52c0,0.37,3.92,0.52,4.29,0.52l32.82-1.48c0.44,0,0.15,4.81-0.07,5.17
		c-18.78,44.58-58.84,79.32-98.02,79.32s-80.36-32.16-99.13-76.73c-0.15-0.37-0.67-7.32-0.22-7.32l36.44-1.26
		c0.37,0,1.26,0.81,1.26,0.52c-0.07-1.11,0.3,2.96,0.3,1.77c0-29.05,21.36-53.23,49.53-58.1c0.37-0.07,0.59-0.37,0.44-0.74
		c-1.63-5.32-4.81-19.07,4.14-24.47c0,0-14.34-0.3-21.51,13.08c-0.07,0.15-0.67,0.96-0.89,1.03c-3.4,0.22-31.79,4.29-39.55-5.84
		c-0.3-0.37-0.07-0.89,0.37-0.96c3.7-0.74,17.74-5.4,30.38-10.87c52.49-22.69-5.4-7.24-4.73-7.47c3.33-1.03,24.91-8.58,27.72-10.2
		c0.59-0.37-13.53-4.14-14.19-3.99c-4.58,1.4-16.41,11.53-26.76,11.16c-0.67,0-0.81-0.96-0.15-1.18c3.33-1.03,13.75-3.92,16.93-5.62
		c0.59-0.3-0.59-8.87-1.26-8.72c-6.21,1.4-25.43,13.16-33.04,11.09c-0.59-0.15-0.59-1.03,0.07-1.18c2.88-0.52,14.27-2.59,18.26-3.62
		c0.74-0.15,0.07-11.61-6.21-6.43c-3.7,3.03-11.53,7.39-14.78,7.1c-0.22,0-0.44,0.07-0.59,0.3c-1.33,2.07-2.51,3.7-3.33,3.84
		c-1.92,0.3-21.81-3.99-28.24-6.21c-0.3-0.07-0.44-0.37-0.37-0.67C97.45,419,150.23,358.61,200.95,368.51
		c3.25,0.67,1.7,1.11,2.96,1.77c0.3,0.15,0.37,0.52,0.22,0.74c-4.21,6.14-6.95,38.66-8.87,49.09c-0.07,0.3-0.3,0.44-0.52,0.44
		c-7.32,0.37-10.05,4.14-10.94,5.91c-0.22,0.44-0.74,0.44-1.03,0.07c-1.26-1.77-4.29-5.32-7.91-5.03c-3.92,0.3-9.02,5.4-10.72,7.24
		c-0.3,0.3-0.74,0.22-0.96-0.07c-0.89-1.63-3.33-5.17-7.47-4.36c-7.32,1.48-9.98,10.42-10.2,11.24c0,0.07,0,0.07-0.07,0.07
		l-22.1,42.51c0,0-0.15,0.3-0.37,0.81c3.25-0.22,6.14-0.52,7.39-0.96c3.18-1.18,32.38-10.35,34.82-10.28
		c2.44,0.15,41.69-11.24,41.69-11.24s10.5-2.96,13.31-2.81c2.81,0.15,6.43,0.15,11.01,13.45c2.59,9.98,8.28,9.83,8.72,9.83
		c0.22,0,5.47-2.66,7.39-2.96c2.66-0.37,22.55-9.54,28.39-9.61c2.81-0.07,2.88,1.33,4.66,1.55
		C284.7,466.68,268.14,473.49,258.09,483.98L258.09,483.98z"/>
	<g>
		<path class="st2" d="M310.36,537.21H207.67l0,0c0,0.22,0.15,0.44,0.37,0.52c25.5,6.51,44.35,29.64,44.35,57.14
			c0,0.74,0,1.48-0.07,2.22h44.72C304.15,578.9,308.8,558.72,310.36,537.21z"/>
		<path class="st2" d="M134.56,594.87c0-28.31,19.89-51.9,46.5-57.66H77.64c1.55,21.51,6.21,41.69,13.31,59.88h43.69
			C134.56,596.35,134.56,595.61,134.56,594.87z"/>
	</g>
	<circle class="st3" cx="193.41" cy="595.02" r="60.32"/>
	<polygon class="st4" points="190.89,323.86 197.03,306.19 203.16,323.86 222.98,323.86 207.97,336.21 213.44,355.21 196.88,343.75 
		181.36,355.21 186.9,336.21 170.27,323.57 	"/>
	<path class="st2" d="M111.2,358.31c0.52,0,20.11-25.43,19.15-25.8c-1.03-0.37-19.15,15.89-23.21,20.85
		c1.18-3.92,7.84-14.19,5.62-15.38c-2.22,4.58-25.06,34.3-25.06,34.3s-11.16,13.6-23.06,36.96l-0.52-0.37l6.87-27.35l-8.28-3.99
		l-20.48,35.63v2.74c0,1.03,17.89-19.74,17.89-19.74v22.4c-6.43,13.97-12.72,30.6-17.22,49.38l-0.74-23.88l-9.02-1.55l-9.98,39.85
		c0,0,0.44,1.63,0.74,2.66s11.83-23.88,11.83-23.88l4.88,17.22c-3.47,17.96-5.1,37.63-3.7,58.55l-7.1-27.2l-9.17,0.44l-0.81,41.1
		c0,0,1.7,1.48,2.66,1.92s4.88-25.43,4.88-25.43l10.42,19.07c2.07,17.74,6.36,36.22,13.68,55.3l-0.67,0.15l-15.23-23.73l-8.35,3.4
		l11.9,39.33c0,0,1.26,1.18,2,1.85c0.74,0.74-2.07-26.54-2.07-26.54l16.78,15.82c6.73,15.3,15.45,30.9,26.54,46.65l-1.26,0.67
		l-21.66-18.04l-7.17,5.69l23.21,33.93c0,0,1.55,0.74,2.51,1.18s-9.98-24.69-9.98-24.69l20.85,10.05c2.51,3.33,5.17,6.65,7.91,10.05
		c0,0,2.37,3.7,7.24,2.66c4.88-3.33,0.67-6.95,0.67-6.95c-3.7-4.29-7.24-8.58-10.5-12.94l-2.59-20.26l17.74,18.33l2.29,0.15
		l-22.77-35.85l-8.21,3.92l8.06,26.17c-10.87-15.3-19.22-30.68-25.5-45.98l3.7-20.11l11.38,22.84l2.14,0.81l-10.87-41.03l-9.02,1.26
		l-0.22,28.61c-6.95-18.85-10.79-37.41-12.42-55.37l9.09-16.78l5.47,24.17l2.37,1.26v-43.1l-8.94,0.37l-8.5,25.5
		c-0.89-18.41,0.44-36,3.25-52.34L64.7,467.2l-1.92,25.43l1.4,1.77l11.68-40.81l-8.43-3.55l-15.15,24.99
		c4.36-20.92,10.94-39.48,17.82-54.7l16.26-10.5l-8.87,23.95l0.81,2.14l22.4-36.08l-7.1-5.69L73.87,412.5
		c8.8-17.67,21.14-34.45,25.8-38.29c2.96-2.44,28.02-23.51,27.8-24.25C127.24,349.22,119.26,353.06,111.2,358.31L111.2,358.31z"/>
	<path class="st2" d="M345.91,552.51c0,0,1.63-9.31-2.07-15.08c0.59-0.22,1.11-0.59,1.55-1.11c1.85-1.85,1.77-4.88-0.15-6.65
		c-0.07-0.07-0.22-0.15-0.3-0.22c-0.07-0.22-0.15-0.52,0.15-0.74c0.37-0.3,0.59-0.22,0.74-0.15c0.07,0.07,0.15,0.15,0.22,0.3
		c1.85,1.85,4.88,1.77,6.65-0.07c1.85-1.85,1.77-4.88-0.15-6.65c-1.85-1.85-4.88-1.77-6.65,0.07c-0.15,0.15-0.3,0.37-0.44,0.59
		l0.07-0.07c0,0-0.59,0.74-1.03,0c-0.44-0.67,0.15-0.89,0.15-0.89h-0.07c0.22-0.15,0.44-0.37,0.67-0.52
		c1.85-1.85,1.77-4.88-0.15-6.65c-0.67-0.67-1.48-1.03-2.37-1.26c0.37-0.07,0.74-0.15,1.11-0.22c15.08-3.84,18.85-18.33,17.22-24.99
		c-7.02-0.89-13.82,7.17-13.82,7.17s-0.67-8.65-5.17-13.53c0.15-0.15,0.22-0.22,0.37-0.37c1.48-2.14,0.96-5.1-1.18-6.58
		c-0.07-0.07-0.22-0.15-0.37-0.15c-0.15-0.22-0.22-0.44,0-0.81c0.3-0.37,0.59-0.3,0.74-0.22c0.07,0.07,0.15,0.15,0.22,0.22
		c2.14,1.48,5.1,0.96,6.58-1.18c1.48-2.14,0.96-5.1-1.18-6.58c-2.14-1.48-5.1-0.96-6.58,1.18c-0.15,0.22-0.22,0.44-0.37,0.59v-0.15
		c0,0-0.52,0.81-1.03,0.22c-0.52-0.59,0-0.89,0-0.89l-0.07,0.07c0.22-0.22,0.37-0.44,0.59-0.67c1.48-2.14,0.96-5.1-1.18-6.58
		c-0.59-0.37-1.18-0.67-1.85-0.74c12.64-6.73,13.68-20.77,11.01-26.76c-7.02,0.3-12.35,9.54-12.35,9.54s-2.44-9.31-8.28-13.01
		c0.59-0.52,1.03-1.18,1.26-2c0.74-2.51-0.59-5.17-3.1-5.91c-0.15-0.07-0.22-0.07-0.37-0.07c-0.22-0.15-0.37-0.37-0.22-0.74
		c0.15-0.44,0.44-0.52,0.59-0.44c0.07,0.07,0.22,0.07,0.3,0.15c2.51,0.81,5.17-0.67,5.91-3.1c0.74-2.51-0.59-5.17-3.1-5.91
		c-2.51-0.81-5.17,0.67-5.91,3.1c-0.07,0.22-0.07,0.44-0.15,0.67v-0.15c0,0-0.22,0.89-0.89,0.52c-0.67-0.37-0.3-0.89-0.3-0.89
		l-0.07,0.07c0.15-0.22,0.22-0.52,0.37-0.81c0.74-2.51-0.59-5.17-3.1-5.91c-0.59-0.15-1.18-0.22-1.77-0.22
		c11.68-10.28,8.43-24.84,3.99-30.01c-6.65,2.37-9.02,12.72-9.02,12.72s-5.17-8.35-11.9-10.05c0.22-0.52,0.3-1.03,0.3-1.63
		c0-2.59-2.14-4.73-4.73-4.73c-0.15,0-0.22,0-0.37,0.07c-0.22-0.07-0.44-0.3-0.44-0.67c0-0.44,0.3-0.59,0.44-0.59
		c0.15,0,0.22,0.07,0.37,0.07c2.59,0,4.73-2.14,4.73-4.73s-2.14-4.73-4.73-4.73c-2.59,0-4.73,2.14-4.73,4.73
		c0,0.22,0,0.44,0.07,0.74v-0.15c0,0,0.07,0.96-0.74,0.74c-0.81-0.22-0.52-0.74-0.52-0.74v0.07c0.07-0.3,0.07-0.59,0.07-0.89
		c0-2.59-2.14-4.73-4.73-4.73c-0.22,0-0.44,0.07-0.67,0.07c6.36-12.64-0.74-24.62-6.28-28.09c-5.62,4.29-4.81,14.86-4.81,14.86
		s-9.02-7.84-16.56-5.62c0,10.28,9.02,15.52,9.02,15.52c-7.32,0.52-13.82,7.54-13.16,9.24c0.59,1.55,18.26,7.69,27.72-0.52
		c0.37,2.29,2.29,4.07,4.66,4.07c0.15,0,0.3,0,0.44-0.07c0.22,0,0.59,0.15,0.59,0.67c0,0.81-0.59,0.67-0.59,0.67l0.22,0.07
		c-0.22,0-0.37-0.07-0.59-0.07c-2.59,0-4.73,2.14-4.73,4.73c0,2.59,2.14,4.73,4.73,4.73c2.44,0,4.44-1.85,4.66-4.29
		c0.15-0.22,0.37-0.52,0.74-0.52c0.59,0.07,0.52,0.74,0.52,0.74v-0.07c0.3,2.37,2.22,4.14,4.66,4.14c0.59,0,1.11-0.15,1.63-0.3
		c-0.96,8.28,4.58,14.42,4.58,14.42c-7.17-1.7-15.45,2.96-15.3,4.81c0.15,1.63,15.23,12.94,26.76,7.84c-0.15,0.3-0.3,0.59-0.37,0.89
		c-0.74,2.51,0.59,5.17,3.1,5.91c0.15,0.07,0.3,0.07,0.44,0.07c0.22,0.07,0.52,0.3,0.37,0.81c-0.22,0.74-0.81,0.44-0.81,0.44
		l0.15,0.07c-0.15-0.07-0.37-0.15-0.52-0.22c-2.51-0.81-5.17,0.67-5.91,3.1c-0.74,2.51,0.59,5.17,3.1,5.91
		c2.37,0.74,4.81-0.44,5.77-2.66c0.15-0.22,0.44-0.44,0.89-0.3c0.59,0.22,0.3,0.89,0.3,0.89l0,0c-0.44,2.29,0.89,4.66,3.25,5.32
		c0.37,0.15,0.81,0.15,1.18,0.22c-3.7,7.76-0.07,15.6-0.07,15.6c-6.36-3.77-15.67-1.7-16.04,0.07
		c-0.37,1.63,11.53,17.82,24.54,15.08c0,0.07-0.07,0.07-0.15,0.15c-1.48,2.14-0.96,5.1,1.18,6.58c0.15,0.07,0.22,0.15,0.37,0.22
		c0.22,0.15,0.37,0.44,0.07,0.89c-0.44,0.67-0.89,0.22-0.89,0.22l0.15,0.15c-0.15-0.15-0.3-0.3-0.44-0.37
		c-2.14-1.48-5.1-0.96-6.58,1.18c-1.48,2.14-0.96,5.1,1.18,6.58c2,1.4,4.73,0.96,6.28-0.81c0.22-0.15,0.59-0.3,0.89,0
		c0.44,0.37,0,0.89,0,0.89l0,0c-1.11,2.07-0.52,4.73,1.48,6.06c0.3,0.22,0.67,0.37,0.96,0.52c-3.84,6.65-1.85,13.97-1.85,13.97
		c-5.54-4.81-15.08-4.36-15.82-2.66c-0.67,1.55,7.98,19.07,20.99,19.15c-0.59,0.22-1.26,0.59-1.7,1.11
		c-1.85,1.85-1.77,4.88,0.15,6.65c0.07,0.07,0.22,0.15,0.37,0.3c0.15,0.22,0.3,0.52-0.07,0.89c-0.59,0.59-0.89,0.07-0.89,0.07
		l0.15,0.15c-0.15-0.15-0.22-0.3-0.37-0.44c-1.85-1.85-4.88-1.77-6.65,0.07c-1.85,1.85-1.77,4.88,0.15,6.65
		c1.77,1.7,4.51,1.77,6.28,0.22c0.22-0.07,0.59-0.15,0.89,0.15c0.37,0.44-0.15,0.89-0.15,0.89h0.07c-1.4,1.85-1.26,4.58,0.44,6.28
		c0.3,0.3,0.67,0.59,1.11,0.74c-6.28,5.54-6.28,13.97-6.28,13.97c-4.21-5.99-13.53-7.98-14.64-6.51
		c-1.03,1.33,2.96,20.33,15.45,23.73c-0.07,0-0.15,0.07-0.22,0.07c-2.29,1.33-3.03,4.21-1.7,6.51c0.07,0.15,0.15,0.22,0.22,0.37
		c0.07,0.22,0.15,0.59-0.3,0.81c-0.74,0.37-0.89-0.22-0.89-0.22l0.07,0.15c-0.07-0.15-0.15-0.37-0.22-0.52
		c-1.33-2.29-4.21-3.03-6.51-1.7c-2.29,1.33-3.03,4.21-1.7,6.51c1.26,2.14,3.84,2.88,6.06,1.92c0.3,0,0.67,0,0.81,0.37
		c0.3,0.52-0.37,0.81-0.37,0.81h0.07c-1.85,1.4-2.44,4.07-1.26,6.14c0.44,0.74,0.96,1.26,1.63,1.63
		c-7.98,3.77-9.98,12.42-9.98,12.42c-2.66-6.88-11.31-10.94-12.72-9.76c-1.26,1.03-1.85,19.22,8.35,26.02
		c-2.29,0.81-3.62,3.25-2.96,5.62c0,0.15,0.07,0.3,0.15,0.37c0,0.22,0,0.59-0.52,0.74c-0.81,0.15-0.81-0.44-0.81-0.44v0.22
		c0-0.22,0-0.37-0.07-0.59c-0.67-2.51-3.25-4.07-5.77-3.4c-2.51,0.67-4.07,3.25-3.4,5.77c0.59,2.37,2.96,3.84,5.32,3.47
		c0.3,0.07,0.59,0.15,0.67,0.59c0.15,0.59-0.59,0.67-0.59,0.67h0.07c-2.22,0.89-3.47,3.25-2.81,5.54c0.15,0.44,0.3,0.89,0.52,1.26
		c-8.06,2.14-11.68,9.61-11.68,9.61c-1.03-7.32-8.5-13.23-10.13-12.42c-1.4,0.74-6.06,17.74,1.85,26.83c-0.07,0-0.22,0-0.3,0
		c-2.59-0.07-4.81,2-4.81,4.66c0,0.15,0,0.3,0,0.44c0,0.22-0.15,0.59-0.67,0.59c-0.81,0-0.67-0.67-0.67-0.67l-0.07,0.22
		c0-0.22,0.07-0.37,0.07-0.59c0.07-2.59-2-4.81-4.66-4.81c-2.59-0.07-4.81,2-4.81,4.66c-0.07,2.44,1.77,4.44,4.14,4.81
		c0.22,0.15,0.52,0.37,0.52,0.74c-0.07,0.59-0.74,0.52-0.74,0.52l0,0c-2.37,0.22-4.21,2.14-4.29,4.58c-0.07,2.59,2,4.81,4.66,4.81
		c2.59,0.07,4.81-2,4.81-4.66c0-0.15,0-0.22,0-0.37c0.07-0.22,0.3-0.44,0.67-0.37c0.44,0.07,0.59,0.3,0.59,0.44
		c0,0.07,0,0.22,0,0.37c-0.07,2.59,2,4.81,4.66,4.81c2.59,0.07,4.81-2,4.81-4.66s-2-4.81-4.66-4.81c-0.22,0-0.44,0-0.74,0.07h0.15
		c0,0-0.96,0.07-0.74-0.74c0.22-0.74,0.74-0.52,0.74-0.52h-0.07c0.3,0.07,0.59,0.07,0.81,0.07c2.59,0.07,4.81-2,4.81-4.66
		c0-0.52-0.07-1.03-0.22-1.48c0.15,0.07,0.3,0.15,0.37,0.22c13.9,7.02,26.24-1.4,29.42-7.47c-4.66-5.32-15.15-3.7-15.15-3.7
		s5.47-7.39,5.03-14.12c0.52,0,1.03,0,1.55-0.15c2.51-0.67,4.07-3.25,3.4-5.77c0-0.15-0.07-0.22-0.15-0.37
		c0-0.22,0.15-0.52,0.52-0.59c0.44-0.07,0.67,0.07,0.74,0.3c0,0.07,0,0.22,0.07,0.37c0.67,2.51,3.25,4.07,5.77,3.4
		c2.51-0.67,4.07-3.25,3.4-5.77s-3.25-4.07-5.77-3.4c-0.22,0.07-0.44,0.15-0.67,0.22l0.07-0.07c0,0-0.89,0.3-0.89-0.52
		c0-0.81,0.59-0.74,0.59-0.74h-0.07c0.3,0,0.59-0.07,0.81-0.15c2.51-0.67,4.07-3.25,3.4-5.77c-0.07-0.37-0.22-0.67-0.37-0.96
		c14.49,2.88,24.17-7.76,25.8-14.19c-5.77-4.07-15.6-0.15-15.6-0.15s4.07-9.39,1.26-15.97c0.59-0.07,1.26-0.3,1.85-0.59
		c2.29-1.33,3.03-4.21,1.7-6.51c-0.07-0.07-0.15-0.22-0.22-0.3c0-0.22,0-0.52,0.37-0.67c0.44-0.22,0.67-0.07,0.74,0.07
		c0.07,0.07,0.07,0.22,0.15,0.3c1.33,2.29,4.21,3.03,6.51,1.7c2.29-1.33,3.03-4.21,1.7-6.51c-1.33-2.29-4.21-3.03-6.51-1.7
		c-0.22,0.15-0.37,0.3-0.59,0.44l0.07-0.07c0,0-0.74,0.52-1.03-0.22s0.37-0.81,0.37-0.81h-0.07c0.3-0.07,0.52-0.22,0.74-0.37
		c2.29-1.33,3.03-4.21,1.7-6.51c-0.3-0.52-0.74-0.96-1.18-1.33c14.71-0.67,21.59-13.23,21.66-19.89
		C354.56,546.38,345.99,552.51,345.91,552.51L345.91,552.51z"/>
	<polygon class="st0" points="191.26,560.79 193.78,554.14 196.14,560.79 205.01,560.79 198.14,566.26 200.95,575.35 193.78,569.74 
		186.53,575.72 188.75,566.48 182.24,560.79 	"/>
	<g>
		<path class="st3" d="M256.69,496.4c-4.07,4.21-3.92,6.8-13.6,7.98c-9.68,1.18-18.85,6.43-18.85,6.43s25.28,2,29.42,1.63
			s17.22-4.51,16.19-12.86C268.81,491.3,259.05,493.96,256.69,496.4L256.69,496.4z"/>
		<path class="st3" d="M281.16,465.5c-1.77-0.22-1.92-1.63-4.73-1.63c-5.99,0.07-26.02,9.31-28.76,9.68s-9.68,0.37-9.68,0.37
			s2.59,2.59,2.22,2.59c-0.37,0-6.21,0.15-8.8-9.98c-4.66-13.45-8.28-13.45-11.16-13.6c-2.88-0.15-13.45,2.88-13.45,2.88
			s-39.85,11.61-42.28,11.53c-2.44-0.15-26.39,8.21-32.16,9.61c-1.33,0.3-7.1,1.48-10.42,1.63c-1.48,0.07-1.26,0.15-1.7,0.15
			c-0.22,0-1.26,0.22-1.48,0.22c-3.4,0.52-5.84,0.96-9.31,1.03c-0.3,0-15.52,1.7-15.82,1.7c0.22,2.59,8.94,4.66,13.08,5.84
			c0.59,0.15,1.18,0.3,1.77,0.37c0.44,0.07,0.89,0.15,0.89,0.15c0.44,0.07,0.67,0.07,1.18,0.15c0.37,0,0.74,0.07,1.11,0.07
			c1.03,0.15,1.33,0.07,2.74,0.07c0.44,0,2.07,0,2.66,0.07c0.81,0.15,2.59,0.15,3.4,0.15c0.3,0,0.59,0,0.89,0.07
			c5.84,0.52,16.12-1.77,16.12-1.77c-1.55,1.55-19.66,4.81-19.66,4.81c8.43,4.44,33.93-2.22,33.93-2.22
			c-2.59,3.25-17.59,7.24-17.59,7.24c21.36,1.7,31.86-4.66,31.86-4.66s-11.68,7.47-19.15,8.06c4.73,1.63,18.92-0.81,27.43-3.1
			c-4.36,2.07-10.35,4.88-19.07,9.76c-13.97,7.84-30.97,11.98-30.97,11.98c7.24,11.75,42.88,9.31,42.88,9.31
			c7.24-13.82,20.4-16.93,20.4-16.93c-8.35,5.03-5.84,19-4.21,25.13c3.03,0.15,5.25-0.52,8.28-0.22c5.4,0.44,12.79-0.89,18.11,0
			l-1.11-9.54c-0.59-4.29,0.81-8.65,3.99-11.68c0.15-0.15,0.3-0.3,0.44-0.44c4.66-4.07,12.94-8.58,23.66-10.79
			c16.63-3.4,13.38-6.88,26.69-17.22c20.55-16.04,27.35-8.65,27.35-8.65C290.62,468.38,285.66,466.17,281.16,465.5L281.16,465.5z"/>
	</g>
	<path class="st1" d="M274.5,466.24c-1.63,0.37-1.55,2.07-1.55,2.07l5.62-1.4C278.57,466.91,276.13,465.87,274.5,466.24
		L274.5,466.24z"/>
	<rect x="80.45" y="534.77" class="st3" width="226.51" height="2.66"/>
	<path class="st0" d="M151.64,594.43c0,5.99,1.26,11.75,3.55,16.93l0.07-0.59v0.67l0,0c0.07-0.07,7.61-18.19,31.12-29.94
		c14.34-6.87,22.62-10.05,42.65-10.05c-7.47-11.53-20.48-19.15-35.26-19.15C170.49,552.36,151.64,571.14,151.64,594.43
		L151.64,594.43z"/>
	<g>
		<path class="st4" d="M223.79,706.42l-1.18-0.59l-3.33,7.17l1.18,0.59c0.44,0.22,0.89,0.3,1.26,0.15c0.37-0.15,0.67-0.37,0.81-0.81
			l2.07-4.44c0.22-0.44,0.22-0.81,0.07-1.18C224.53,706.94,224.23,706.64,223.79,706.42L223.79,706.42z"/>
		<path class="st4" d="M128.28,702.65c-0.44-0.07-0.81,0-1.18,0.3c-0.3,0.22-0.52,0.59-0.59,1.11l-0.67,4.81
			c-0.07,0.52,0,0.89,0.22,1.18c0.22,0.3,0.59,0.52,1.03,0.59c0.44,0.07,0.89,0,1.18-0.3c0.3-0.22,0.52-0.59,0.59-1.11l0.67-4.81
			c0.07-0.52,0-0.89-0.22-1.18C129.09,702.95,128.72,702.73,128.28,702.65z"/>
		<path class="st4" d="M306.51,690.68c-45.09,28.02-88.27-0.67-88.27-0.67l-9.02,15.23l-27.94-17.3l-10.28,17.3
			c-61.8-36.3-114.66,2.07-114.66,2.07l16.41,26.39c46.42-28.98,88.49,1.03,88.49,1.03l8.43-15.75l27.13,16.41l10.35-14.78
			c70.67,31.64,115.32-4.07,115.32-4.07L306.51,690.68L306.51,690.68z M79.12,720.99l-1.92,1.03l-5.84-10.65l1.92-1.03l0,0
			l3.99-2.22l1.03,1.85l-3.99,2.22l1.4,2.59l3.4-1.85l1.03,1.85l-3.4,1.85l1.4,2.51l3.99-2.22l1.03,1.85L79.12,720.99L79.12,720.99
			L79.12,720.99z M89.91,715.22c-0.44,0.74-1.26,1.33-2.44,1.7c-0.67,0.22-1.26,0.3-1.77,0.22c-0.52-0.07-1.03-0.22-1.48-0.52
			c-0.44-0.3-0.81-0.67-1.11-1.18l1.63-1.48c0.3,0.44,0.67,0.74,1.03,0.81c0.37,0.15,0.81,0.15,1.26,0
			c0.44-0.15,0.81-0.37,0.96-0.67s0.22-0.59,0.07-0.96l-0.15-0.52c-0.07-0.3-0.22-0.52-0.44-0.59c-0.22-0.15-0.44-0.15-0.81-0.22
			c-0.3,0-0.67,0-0.96,0c-0.37,0-0.81,0-1.18,0s-0.81-0.07-1.18-0.22c-0.37-0.15-0.74-0.37-1.03-0.67s-0.52-0.74-0.74-1.33
			l-0.07-0.3c-0.3-1.03-0.22-1.85,0.22-2.66c0.44-0.81,1.26-1.33,2.37-1.63c0.89-0.3,1.63-0.3,2.29-0.07
			c0.67,0.22,1.26,0.74,1.7,1.48l-1.55,1.48c-0.3-0.37-0.59-0.67-0.96-0.81c-0.37-0.15-0.67-0.15-1.03,0
			c-0.44,0.15-0.74,0.37-0.96,0.59c-0.22,0.22-0.22,0.59-0.15,0.89l0.15,0.37c0.07,0.3,0.3,0.59,0.52,0.67
			c0.22,0.15,0.52,0.22,0.89,0.22c0.37,0,0.67,0,1.11,0c0.37,0,0.74,0,1.18,0.07c0.37,0,0.74,0.07,1.11,0.22
			c0.37,0.15,0.67,0.37,0.96,0.67c0.3,0.3,0.52,0.74,0.67,1.26l0.15,0.52C90.43,713.59,90.36,714.48,89.91,715.22L89.91,715.22z
			 M97.75,714.18l-2.14,0.22l-1.03-9.98l-2.59,0.3l-0.22-2.07l7.39-0.74l0.22,2.07l-2.66,0.3L97.75,714.18L97.75,714.18z
			 M108.62,711.97l-0.74-1.85l-3.4,0.37l-0.3,2l-2.22,0.22l2.37-12.49l1.48-0.15l5.1,11.61L108.62,711.97L108.62,711.97z
			 M120.96,709.16c0,0.74-0.15,1.33-0.44,1.85c-0.3,0.52-0.74,0.89-1.33,1.18c-0.59,0.3-1.26,0.37-2.07,0.37h-1.4l0,0l-2.14-0.07
			l0.37-12.12l2.14,0.07l0,0h1.4c1.18,0,2.14,0.37,2.74,1.03c0.67,0.67,0.96,1.48,0.89,2.59L120.96,709.16L120.96,709.16z
			 M131.83,704.57l-0.67,5.03c-0.07,0.74-0.37,1.33-0.74,1.85s-0.89,0.89-1.48,1.11c-0.59,0.22-1.26,0.3-2.07,0.15
			c-0.74-0.07-1.4-0.37-1.92-0.74c-0.52-0.37-0.89-0.81-1.11-1.4s-0.3-1.26-0.22-2l0.67-5.03c0.07-0.74,0.37-1.33,0.74-1.85
			c0.37-0.52,0.89-0.89,1.48-1.11c0.59-0.22,1.26-0.3,2.07-0.15c0.74,0.07,1.4,0.37,1.92,0.74c0.52,0.37,0.89,0.81,1.11,1.4
			S131.9,703.83,131.83,704.57z M148.16,708.86l-0.89,5.03c-0.15,0.74-0.37,1.33-0.74,1.77c-0.37,0.44-0.89,0.81-1.48,0.96
			c-0.59,0.22-1.33,0.22-2.14,0.07l-1.85-0.3l-1.63-0.3l2.07-11.98l1.26,0.22l0,0l0.52,0.07l0.37,0.07l0,0l1.4,0.22
			c1.18,0.22,2.07,0.67,2.59,1.4C148.16,706.87,148.31,707.75,148.16,708.86L148.16,708.86z M160.07,712.78l-1.85,4.73
			c-0.3,0.67-0.67,1.26-1.11,1.63c-0.52,0.37-1.03,0.59-1.7,0.67c-0.67,0.07-1.33-0.07-2-0.3c-0.74-0.3-1.26-0.67-1.7-1.11
			c-0.44-0.52-0.67-1.03-0.74-1.63c-0.07-0.59,0-1.26,0.3-2l1.85-4.73c0.3-0.67,0.67-1.26,1.11-1.63c0.52-0.37,1.03-0.59,1.7-0.67
			c0.67-0.07,1.33,0.07,2,0.3c0.74,0.3,1.26,0.67,1.7,1.11c0.44,0.52,0.67,1.03,0.74,1.63S160.36,712.11,160.07,712.78
			L160.07,712.78z M183.87,709.53c-0.15,0-0.3-0.07-0.44-0.07l-0.52,5.69l-2.14-1.18l0.59-5.4l-0.89-0.52l-2.44,4.36l-1.85-1.03
			l5.91-10.57l1.11,0.59l2.51,1.4c0.59,0.3,1.03,0.74,1.33,1.18s0.44,0.96,0.44,1.48c0,0.52-0.15,1.11-0.52,1.7l-0.37,0.59
			c-0.3,0.59-0.74,1.03-1.18,1.33C184.91,709.38,184.39,709.53,183.87,709.53L183.87,709.53z M185.57,716.92l6.58-10.2l1.85,1.18
			l-6.58,10.2L185.57,716.92z M200.65,716.85l-2.51,4.44c-0.37,0.67-0.81,1.11-1.33,1.48c-0.52,0.3-1.11,0.52-1.77,0.44
			c-0.67,0-1.26-0.22-1.92-0.59c-0.67-0.37-1.18-0.81-1.48-1.4c-0.37-0.52-0.52-1.11-0.52-1.77c0-0.59,0.22-1.26,0.59-1.92
			l2.51-4.44c0.37-0.67,0.81-1.11,1.33-1.48c0.52-0.3,1.11-0.44,1.77-0.44c0.67,0,1.26,0.22,1.92,0.59s1.18,0.81,1.48,1.4
			c0.37,0.52,0.52,1.11,0.52,1.77S201.02,716.25,200.65,716.85L200.65,716.85z M226.67,709.3l-2.14,4.58
			c-0.3,0.67-0.67,1.18-1.18,1.48c-0.44,0.37-1.03,0.52-1.63,0.59c-0.67,0-1.33-0.15-2.07-0.52l-2.07-0.96l0,0l-1.11-0.52l5.1-11.01
			l1.11,0.52l0,0l2.07,0.96c1.11,0.52,1.77,1.18,2.14,2C227.19,707.38,227.12,708.27,226.67,709.3L226.67,709.3z M236.95,710.78
			l-4.44-1.11l-0.74,2.81l3.77,0.96l-0.52,2l-3.77-0.96l-0.74,2.81l4.44,1.11l-0.52,2.07l-5.69-1.48l0,0l-0.81-0.22l3.03-11.75
			l1.63,0.44l4.88,1.26L236.95,710.78L236.95,710.78z M249.37,720.1c0,1.03-0.37,1.85-0.96,2.44c-0.59,0.59-1.4,0.81-2.44,0.81
			c-0.59,0-1.18-0.15-1.7-0.44c-0.52-0.3-0.89-0.67-1.18-1.11l1.63-1.33c0.15,0.22,0.37,0.37,0.59,0.52
			c0.22,0.15,0.44,0.22,0.74,0.22c0.37,0,0.67-0.07,0.89-0.3c0.22-0.22,0.3-0.52,0.3-0.96l0.22-8.72l2.22,0.07L249.37,720.1
			L249.37,720.1z M258.24,724.16l-0.44-1.92l-3.4-0.07l-0.59,1.92l-2.22-0.07l4.07-11.98l1.48,0.07l3.4,12.2L258.24,724.16z
			 M271.47,724.83h-2.22l-3.4-7.98l-0.07,7.91h-2l0.15-12.12h2.22l3.4,8.21l0.07-8.13h2.07L271.47,724.83L271.47,724.83z
			 M276.57,723.42L276.57,723.42l-0.89,0.07l-0.89-12.05l2.14-0.15l0,0l4.58-0.37l0.15,2.07l-4.58,0.37l0.22,2.96l3.92-0.3
			l0.15,2.07l-3.92,0.3l0.22,2.88l4.58-0.37l0.15,2.07L276.57,723.42L276.57,723.42z M284.7,722.61l-1.18-12.05l2.22-0.22
			l1.18,12.05L284.7,722.61z M295.79,720.47l-2.88-4.58l-1.03,0.15l0.74,4.95l-2.14,0.37l-1.85-11.98l0.89-0.15l0,0l3.18-0.52
			c0.67-0.07,1.26-0.07,1.77,0.15c0.52,0.15,0.96,0.52,1.26,0.89c0.37,0.44,0.52,0.96,0.67,1.63l0.15,0.74
			c0.07,0.67,0.07,1.26-0.15,1.77c-0.22,0.52-0.52,0.96-0.96,1.26c-0.15,0.07-0.22,0.15-0.37,0.22l3.1,4.81L295.79,720.47
			L295.79,720.47z M306.73,715.74c-0.44,0.44-1.03,0.81-1.77,1.03s-1.4,0.3-2.07,0.22c-0.59-0.07-1.18-0.37-1.63-0.81
			c-0.44-0.44-0.81-0.96-1.03-1.7l-1.55-4.81c-0.22-0.74-0.3-1.4-0.15-2s0.37-1.11,0.89-1.63c0.44-0.44,1.03-0.81,1.77-1.03
			c0.74-0.22,1.4-0.3,2.07-0.22c0.67,0.07,1.18,0.37,1.63,0.81c0.44,0.44,0.81,0.96,1.03,1.7l1.55,4.81c0.22,0.74,0.3,1.33,0.15,2
			S307.18,715.29,306.73,715.74L306.73,715.74z"/>
		<path class="st4" d="M144.62,706.79l-1.33-0.22l-1.33,7.84l1.33,0.22c0.52,0.07,0.89,0,1.26-0.22c0.3-0.22,0.52-0.59,0.59-1.03
			l0.81-4.81c0.07-0.44,0-0.89-0.22-1.18C145.5,707.09,145.13,706.87,144.62,706.79L144.62,706.79z"/>
		<path class="st4" d="M117.34,702.5h-1.33l-0.22,7.91h1.33c0.52,0,0.89-0.15,1.18-0.37c0.3-0.22,0.44-0.59,0.44-1.11l0.15-4.88
			c0-0.52-0.15-0.89-0.37-1.11C118.3,702.73,117.86,702.58,117.34,702.5z"/>
		<path class="st4" d="M198.14,713.74c-0.37-0.22-0.81-0.3-1.18-0.15c-0.37,0.15-0.67,0.37-0.96,0.81l-2.37,4.21
			c-0.22,0.44-0.3,0.81-0.22,1.26c0.07,0.37,0.37,0.67,0.74,0.89c0.37,0.22,0.81,0.3,1.18,0.15c0.37-0.15,0.67-0.37,0.96-0.81
			l2.37-4.21c0.22-0.44,0.3-0.81,0.22-1.18S198.51,713.96,198.14,713.74L198.14,713.74z"/>
		<path class="st4" d="M157.18,710.04c-0.44-0.15-0.81-0.15-1.18,0c-0.37,0.15-0.67,0.44-0.81,0.89l-1.77,4.51
			c-0.15,0.44-0.22,0.89-0.07,1.26c0.15,0.37,0.44,0.67,0.89,0.81c0.44,0.15,0.81,0.15,1.18,0c0.37-0.15,0.67-0.44,0.81-0.96
			l1.77-4.51c0.15-0.44,0.22-0.89,0.07-1.26C157.92,710.41,157.55,710.19,157.18,710.04L157.18,710.04z"/>
		<path class="st4" d="M184.61,704.65l-1.7-0.96l-1.48,2.59l1.7,0.96c0.3,0.15,0.52,0.22,0.81,0.07c0.3-0.07,0.44-0.3,0.67-0.59
			l0.37-0.59c0.15-0.3,0.22-0.59,0.15-0.89C185.05,704.94,184.83,704.8,184.61,704.65L184.61,704.65z"/>
		<polygon class="st4" points="254.99,720.1 257.28,720.17 256.24,716.03 		"/>
		<polygon class="st4" points="104.85,708.42 107.06,708.2 105.44,704.2 		"/>
		<path class="st4" d="M294.24,713.22c0.15-0.22,0.22-0.52,0.15-0.81l-0.07-0.67c-0.07-0.37-0.15-0.59-0.37-0.81
			c-0.22-0.15-0.44-0.22-0.81-0.22l-1.92,0.3l0.44,2.88l1.92-0.3C293.87,713.59,294.09,713.44,294.24,713.22z"/>
		<path class="st4" d="M303.78,708.12c-0.15-0.44-0.37-0.81-0.74-0.96c-0.37-0.15-0.74-0.22-1.18-0.07
			c-0.44,0.15-0.74,0.37-0.96,0.74c-0.15,0.37-0.22,0.74,0,1.26l1.48,4.58c0.15,0.44,0.37,0.81,0.74,0.96
			c0.37,0.15,0.74,0.22,1.18,0.07c0.44-0.15,0.74-0.37,0.96-0.74c0.22-0.37,0.15-0.74,0-1.26L303.78,708.12z"/>
	</g>
	<path class="st5" d="M193.48,360.9c-65.79,0-119.09,71.63-119.09,160.05s53.3,160.05,119.09,160.05s119.09-71.63,119.09-160.05
		S259.27,360.9,193.48,360.9L193.48,360.9z M197.55,673.53c-0.22,0-0.44,0-0.67,0c-1.11,0.07-2.29,0.07-3.4,0.07
		c-1.11,0-2.29,0-3.4-0.07c-0.22,0-0.44,0-0.67,0c-58.47-2.96-105.27-69.86-105.27-151.92S130.5,373.32,188.6,369.77
		c0.15,0,0.22,0,0.37,0c1.48-0.07,2.96-0.15,4.51-0.15c0.89,0,1.77,0,2.66,0.07c59.14,1.92,106.75,69.27,106.75,151.99
		S256.09,670.57,197.55,673.53L197.55,673.53z"/>
	<path class="st1" d="M199.54,535.06c-0.37-4.81-1.18-16.71-1.33-19.66c0,0-5.1,1.26-6.14,7.24c-0.74,4.07-0.67,9.31-0.59,12.27
		c0.74,0,1.48-0.07,2.22-0.07C195.7,534.77,197.62,534.84,199.54,535.06L199.54,535.06z"/>
	<path class="st1" d="M148.46,601.52l-8.8,0.15v-1.63l8.8-0.15V601.52z M144.91,600.93h-1.63l-0.07-3.03c0-0.3-0.07-0.44-0.3-0.59
		s-0.44-0.22-0.74-0.22c-0.3,0-0.59,0.07-0.74,0.22c-0.15,0.15-0.3,0.37-0.3,0.67l0.07,3.03h-1.63l-0.07-3.18
		c0-0.52,0.07-0.89,0.3-1.26c0.22-0.37,0.52-0.67,0.89-0.89c0.37-0.22,0.81-0.3,1.4-0.3c0.59,0,0.96,0.07,1.4,0.3
		c0.44,0.22,0.74,0.44,0.96,0.81c0.22,0.37,0.37,0.81,0.37,1.26L144.91,600.93L144.91,600.93z M148.46,596.94l-3.77,2.22l-0.3-1.77
		l4.07-2.44V596.94z"/>
	<path class="st1" d="M150.23,574.98l-4.36-3.55l0.81-2.07l7.39,2.96l-0.59,1.4l-5.77-2.29l0.37,0.07l3.99,3.4l-0.59,1.4l-5.17-0.22
		l-0.37-0.22l5.77,2.29l-0.59,1.4l-7.39-2.96l0.81-2.07L150.23,574.98L150.23,574.98z"/>
	<path class="st1" d="M156.52,567.96l-6.14-5.62l1.03-1.18l6.14,5.62L156.52,567.96z M154.67,565.3l-1.11-1.03l1.77-1.92
		c0.22-0.22,0.3-0.44,0.22-0.67c-0.07-0.22-0.15-0.52-0.37-0.67s-0.44-0.3-0.74-0.3c-0.3,0-0.44,0.07-0.67,0.3l-1.77,1.92
		l-1.11-1.03l1.77-1.92c0.37-0.37,0.74-0.67,1.18-0.81c0.44-0.15,0.81-0.15,1.26-0.07c0.44,0.07,0.81,0.3,1.18,0.67
		c0.37,0.37,0.67,0.74,0.74,1.11c0.07,0.37,0.15,0.81,0,1.26s-0.37,0.81-0.67,1.18L154.67,565.3z"/>
	<path class="st1" d="M167.53,557.91c-0.74,0.59-1.48,0.89-2.22,0.81c-0.74-0.07-1.4-0.52-2.07-1.26l-3.33-4.07l1.18-0.96l3.33,4.07
		c0.3,0.37,0.67,0.59,0.96,0.59c0.3,0,0.74-0.07,1.11-0.37c0.37-0.3,0.59-0.59,0.59-0.96s-0.07-0.74-0.37-1.11l-3.33-4.07l1.18-0.96
		l3.33,4.07c0.59,0.74,0.89,1.48,0.81,2.22C168.64,556.65,168.27,557.32,167.53,557.91L167.53,557.91z"/>
	<path class="st1" d="M174.78,553.4l-2.88-7.02l1.33-0.52l2.88,7.02L174.78,553.4z M175.37,553.1l-0.52-1.26l2.22-0.89
		c0.3-0.15,0.52-0.3,0.59-0.52c0.07-0.22,0.07-0.44,0-0.74l0,0c-0.15-0.3-0.3-0.44-0.52-0.52s-0.52-0.07-0.81,0.07l-2.22,0.89
		l-0.52-1.26l2.22-0.89c0.3-0.07,0.44-0.3,0.59-0.44c0.15-0.15,0.07-0.44,0-0.67c-0.07-0.22-0.22-0.37-0.44-0.44
		c-0.22-0.07-0.44,0-0.74,0.07l-2.22,0.89l-0.52-1.26l2.29-0.96c0.67-0.3,1.26-0.37,1.77-0.15c0.52,0.22,0.89,0.59,1.11,1.18
		c0.15,0.44,0.15,0.81,0.07,1.18s-0.37,0.67-0.81,0.96c0.52-0.15,0.96-0.07,1.33,0.07c0.37,0.15,0.67,0.52,0.81,0.96l0,0
		c0.3,0.59,0.3,1.18,0,1.63s-0.74,0.89-1.4,1.18L175.37,553.1L175.37,553.1z"/>
	<path class="st1" d="M184.68,549.55v-7.69h1.48v7.69H184.68z M185.28,549.55v-1.4h4.51v1.4H185.28z"/>
	<path class="st1" d="M196.59,540.76v8.21h-1.63v-8.21H196.59z"/>
	<path class="st1" d="M205.31,549.78c-0.59-0.07-1.03-0.3-1.4-0.52c-0.37-0.22-0.67-0.67-0.81-1.11s-0.15-0.96-0.07-1.55l0.3-2.07
		c0.07-0.59,0.3-1.11,0.52-1.48c0.22-0.37,0.67-0.67,1.03-0.81c0.37-0.15,0.96-0.22,1.48-0.07c0.44,0.07,0.89,0.22,1.18,0.52
		s0.59,0.59,0.81,1.03s0.3,0.89,0.3,1.48l-1.48-0.22c0-0.3-0.07-0.44-0.15-0.67c-0.07-0.22-0.22-0.37-0.37-0.44
		c-0.15-0.07-0.3-0.22-0.52-0.22c-0.37-0.07-0.74,0-0.96,0.22c-0.22,0.22-0.44,0.52-0.44,0.96l-0.3,2.07
		c-0.07,0.44,0,0.81,0.15,1.03c0.15,0.22,0.44,0.44,0.89,0.52c0.3,0.07,0.59,0,0.81-0.22c0.22-0.22,0.44-0.44,0.59-0.81l1.48,0.22
		c-0.15,0.52-0.44,0.96-0.74,1.33c-0.3,0.37-0.67,0.59-1.03,0.74C206.2,549.85,205.75,549.85,205.31,549.78L205.31,549.78z"/>
	<path class="st1" d="M212.78,552.14l6.06-6.06l0.89,0.37l-0.52,8.58l-1.48-0.67l0.52-5.77l-3.99,4.21L212.78,552.14L212.78,552.14z
		 M214.7,551.62l0.59-1.33l3.84,1.7l-0.59,1.33L214.7,551.62z"/>
	<path class="st1" d="M227.49,559.24l5.4-3.1l1.77,1.63l-5.99,6.51l-1.26-1.11l4.66-5.03l-0.22,0.37l-5.1,2.81l-1.18-1.11l2.22-5.25
		l0.37-0.37l-4.66,5.03l-1.26-1.11l5.99-6.51l1.77,1.63L227.49,559.24L227.49,559.24z"/>
	<path class="st1" d="M244.93,590.58v3.25h-1.85c-0.74,0-1.33-0.15-1.85-0.44c-0.52-0.3-0.89-0.67-1.18-1.18
		c-0.3-0.52-0.44-1.11-0.44-1.77c0-0.67,0.15-1.33,0.44-1.77c0.3-0.52,0.67-0.89,1.18-1.18c0.52-0.3,1.11-0.44,1.7-0.44h2.74
		c0.74,0,1.33,0.15,1.85,0.44c0.52,0.3,0.89,0.67,1.18,1.18c0.3,0.52,0.44,1.11,0.44,1.77c0,0.59-0.15,1.11-0.37,1.55
		c-0.22,0.44-0.59,0.81-0.96,1.18s-0.89,0.52-1.48,0.67v-1.92c0.3-0.07,0.52-0.3,0.74-0.59c0.22-0.3,0.22-0.59,0.22-0.89
		c0-0.44-0.15-0.89-0.44-1.11c-0.3-0.3-0.74-0.44-1.18-0.44h-2.74c-0.44,0-0.81,0.15-1.03,0.44c-0.22,0.3-0.37,0.67-0.44,1.18
		c-0.07,0.52,0.15,0.89,0.44,1.11c0.3,0.22,0.67,0.44,1.18,0.44h0.15v-1.4h1.7V590.58z"/>
	<path class="st1" d="M240.35,598.27l8.13,0.15v1.55l-8.13-0.15V598.27z M247,598.94h1.48l-0.07,4.88h-1.48L247,598.94z
		 M243.6,598.86h1.48l-0.07,4.29h-1.48L243.6,598.86z M240.35,598.79h1.48l-0.07,4.88h-1.48L240.35,598.79z"/>
	<path class="st1" d="M235.84,616.38l6.65,4.66l-0.89,1.26l-6.65-4.66L235.84,616.38z M241.01,620.6l1.18,0.81l-2.81,3.99
		l-1.18-0.81L241.01,620.6z M238.28,618.75l1.18,0.81l-2.44,3.55l-1.18-0.81L238.28,618.75z M235.54,616.83l1.18,0.81l-2.81,3.99
		l-1.18-0.81L235.54,616.83L235.54,616.83z"/>
	<path class="st1" d="M223.64,631.31l4.51,6.73l-1.26,0.81l-4.51-6.73L223.64,631.31z M226.89,637.15l0.81,1.26l-4.07,2.74
		l-0.81-1.26L226.89,637.15z M224.97,634.35l0.81,1.26l-3.55,2.37l-0.81-1.26L224.97,634.35z M223.12,631.61l0.81,1.26l-4.07,2.74
		l-0.81-1.26L223.12,631.61z"/>
	<path class="st1" d="M191.71,641.22l0.07,8.13h-1.55l-0.07-8.13H191.71L191.71,641.22z M191.19,647.87v1.48h-4.88v-1.48H191.19z
		 M191.12,644.55v1.48h-4.29v-1.48H191.12z M191.12,641.22v1.48h-4.88v-1.48H191.12z"/>
	<path class="st1" d="M165.61,632.2l-5.84,5.62l-1.03-1.11l5.84-5.62L165.61,632.2z M160.44,636.34l-1.03,1.03l-3.4-3.55l1.03-1.03
		L160.44,636.34z M162.8,634.05l-1.03,1.03l-2.96-3.1l1.03-1.03L162.8,634.05z M165.17,631.76l-1.03,1.03l-3.4-3.55l1.03-1.03
		L165.17,631.76z"/>
	<path class="st1" d="M239.54,606.77l7.39,3.84l-0.74,1.4l-7.39-3.84L239.54,606.77z M242.27,608.84l1.33,0.67l-1.33,2.59
		c-0.15,0.22-0.15,0.44,0,0.67c0.15,0.22,0.3,0.37,0.52,0.52c0.22,0.15,0.52,0.15,0.74,0.15c0.22,0,0.37-0.15,0.52-0.37l1.33-2.59
		l1.33,0.67l-1.4,2.66c-0.22,0.44-0.52,0.74-0.81,0.96c-0.3,0.22-0.74,0.3-1.11,0.3c-0.37,0-0.89-0.15-1.33-0.37
		c-0.44-0.22-0.81-0.52-1.03-0.89c-0.22-0.37-0.37-0.74-0.37-1.11s0.07-0.81,0.3-1.18L242.27,608.84L242.27,608.84z M237.54,610.62
		l4.14-0.15l-0.52,1.63l-4.44,0.22L237.54,610.62L237.54,610.62z"/>
	<path class="st1" d="M231.11,624.96l5.47,6.28l-1.18,1.03l-5.47-6.28L231.11,624.96z M232.88,627.91l1.03,1.11l-2.22,1.92
		c-0.15,0.15-0.3,0.37-0.3,0.59s0.07,0.44,0.3,0.67c0.22,0.22,0.37,0.37,0.67,0.37c0.3,0,0.44,0,0.59-0.15l2.22-1.92l1.03,1.11
		l-2.29,2c-0.37,0.3-0.74,0.52-1.11,0.59c-0.37,0.07-0.81,0-1.18-0.15c-0.37-0.15-0.74-0.44-1.11-0.81
		c-0.37-0.37-0.52-0.74-0.67-1.18c-0.15-0.44-0.07-0.81,0-1.18s0.37-0.74,0.74-1.03L232.88,627.91L232.88,627.91z M227.86,627.91
		l3.92,1.4l-1.11,1.33l-4.21-1.48L227.86,627.91z"/>
	<path class="st1" d="M202.65,640.48v8.35h-1.55v-8.35H202.65L202.65,640.48z M202.06,643.81v1.48h-2.88c-0.22,0-0.44,0.07-0.59,0.3
		c-0.15,0.22-0.22,0.44-0.22,0.74c0,0.3,0.07,0.52,0.22,0.74c0.15,0.22,0.37,0.3,0.59,0.3h2.88v1.48h-3.03
		c-0.44,0-0.89-0.07-1.18-0.3c-0.3-0.22-0.59-0.52-0.81-0.89c-0.22-0.37-0.3-0.81-0.3-1.33s0.07-0.96,0.3-1.33s0.44-0.67,0.81-0.89
		c0.37-0.22,0.74-0.3,1.18-0.3H202.06L202.06,643.81z M198.21,640.48l2.07,3.62l-1.7,0.3l-2.29-3.84L198.21,640.48L198.21,640.48z"
		/>
	<path class="st1" d="M181.21,638.93c0.67,0.22,1.11,0.59,1.48,0.96c0.37,0.37,0.59,0.89,0.67,1.4s0,1.18-0.3,1.77l-0.81,2.29
		c-0.22,0.67-0.59,1.18-0.96,1.55c-0.37,0.37-0.89,0.59-1.4,0.67c-0.52,0.07-1.11,0-1.77-0.22c-0.52-0.22-0.96-0.44-1.26-0.89
		c-0.3-0.44-0.52-0.81-0.67-1.33c-0.15-0.52-0.07-1.11,0-1.77l1.63,0.59c-0.07,0.3,0,0.59,0,0.81c0,0.22,0.15,0.44,0.3,0.59
		c0.15,0.15,0.3,0.3,0.52,0.37c0.44,0.15,0.81,0.15,1.18,0c0.37-0.15,0.59-0.52,0.81-1.03l0.81-2.29c0.15-0.52,0.22-0.89,0.07-1.26
		c-0.15-0.37-0.44-0.59-0.89-0.81c-0.37-0.15-0.67-0.15-0.96,0c-0.3,0.15-0.59,0.37-0.81,0.74l-1.63-0.59
		c0.37-0.59,0.74-1.03,1.11-1.33c0.37-0.3,0.89-0.52,1.4-0.59C180.17,638.63,180.69,638.71,181.21,638.93L181.21,638.93z"/>
	<path class="st1" d="M170.71,642.7l-0.74,1.33l-5.25-3.03l0.74-1.33L170.71,642.7z M172.19,635.68l-3.84,6.58l-1.33-0.81l3.84-6.58
		L172.19,635.68z"/>
	<path class="st1" d="M148.53,589.62l-7.84-0.37l0.07-1.48l7.84,0.37L148.53,589.62z M142.18,588.81l-1.4-0.07l0.22-4.73l1.4,0.07
		L142.18,588.81z M145.43,588.96l-1.4-0.07l0.15-4.14l1.4,0.07L145.43,588.96z M148.61,589.1l-1.4-0.07l0.22-4.73l1.4,0.07
		L148.61,589.1z"/>
	<path class="st1" d="M168.86,611.13l-1.26-4.21h0.37c0,0.22,0,0.37-0.07,0.59c-0.07,0.15-0.22,0.37-0.44,0.52
		c-0.44,0.37-0.96,0.59-1.55,0.44c-0.59-0.07-1.11-0.37-1.55-0.96l0,0c-0.52-0.59-0.74-1.18-0.74-1.77c0-0.59,0.37-1.11,0.89-1.63
		c0.52-0.52,1.18-0.67,1.77-0.67c0.59,0.07,1.18,0.37,1.7,1.03l0,0c0.22,0.3,0.37,0.59,0.59,0.89c0.15,0.37,0.3,0.74,0.44,1.11
		l1.11,3.62L168.86,611.13L168.86,611.13z M166.79,606.7c0.22-0.15,0.3-0.37,0.3-0.59c0-0.22-0.07-0.44-0.3-0.74l0,0
		c-0.22-0.22-0.37-0.37-0.59-0.37c-0.22,0-0.44,0-0.67,0.22c-0.22,0.22-0.3,0.37-0.3,0.59c0,0.22,0.07,0.44,0.3,0.67l0,0
		c0.22,0.22,0.44,0.37,0.67,0.44C166.35,606.92,166.57,606.85,166.79,606.7L166.79,606.7z"/>
	<path class="st1" d="M173.67,605.81l-2.66-7.98l0.74-0.59l7.32,4.14l-1.26,1.03l-4.88-2.96l2,5.32L173.67,605.81L173.67,605.81z
		 M173.96,603.89l-0.89-1.11l3.18-2.66l0.89,1.11L173.96,603.89z"/>
	<path class="st1" d="M180.25,600.19l-3.84-6.06l1.11-0.74l3.84,6.06L180.25,600.19z M180.77,599.82l-0.74-1.11l1.92-1.26
		c0.3-0.15,0.44-0.37,0.44-0.59c0-0.22,0-0.44-0.15-0.67l0,0c-0.15-0.22-0.37-0.37-0.59-0.37c-0.22,0-0.44,0-0.74,0.22l-1.92,1.26
		l-0.74-1.11l1.92-1.26c0.22-0.15,0.37-0.3,0.44-0.52c0.07-0.22,0-0.44-0.15-0.67c-0.15-0.22-0.3-0.3-0.52-0.37
		c-0.22,0-0.44,0-0.67,0.22l-1.92,1.26l-0.74-1.11l1.92-1.26c0.59-0.37,1.11-0.52,1.63-0.44c0.52,0.07,0.89,0.37,1.26,0.89
		c0.22,0.37,0.3,0.74,0.22,1.11s-0.3,0.67-0.59,1.03c0.44-0.22,0.81-0.22,1.26-0.15c0.37,0.07,0.74,0.37,0.96,0.74l0,0
		c0.37,0.52,0.44,1.03,0.3,1.55s-0.52,0.96-1.11,1.33L180.77,599.82L180.77,599.82z"/>
	<path class="st1" d="M186.46,595.68l-3.03-5.77l1.11-0.59l3.03,5.77L186.46,595.68z M185.72,593.17l-0.52-1.03l2-1.03
		c0.15-0.07,0.3-0.22,0.3-0.37c0-0.15,0-0.37-0.07-0.59c-0.07-0.22-0.22-0.37-0.37-0.37c-0.15-0.07-0.37-0.07-0.52,0l-2,1.03
		l-0.52-1.03l2.07-1.11c0.3-0.15,0.67-0.22,0.96-0.22c0.3,0,0.59,0.15,0.89,0.3c0.3,0.15,0.52,0.44,0.67,0.81
		c0.15,0.37,0.3,0.67,0.3,1.03c0,0.3-0.07,0.59-0.22,0.89c-0.15,0.3-0.37,0.44-0.74,0.67L185.72,593.17L185.72,593.17z
		 M189.49,594.13l-2.66-1.77l1.03-0.81l2.96,1.85L189.49,594.13L189.49,594.13z"/>
	<path class="st1" d="M190.89,585.63l2.81,6.28l-1.26,0.52l-2.81-6.28L190.89,585.63z"/>
	<path class="st1" d="M195.48,590.73l-1.92-5.91l1.11-0.37l1.92,5.91L195.48,590.73z M195.99,590.58l-0.37-1.11l3.47-1.11l0.37,1.11
		L195.99,590.58z"/>
	<path class="st1" d="M203.24,580.75l1.85,6.65l-1.26,0.37l-1.48-5.17l-0.74,0.52l-0.37-1.33l0.89-0.74L203.24,580.75L203.24,580.75
		z"/>
	<path class="st1" d="M209.97,586.29c-0.44,0.07-0.81,0.07-1.18-0.07c-0.37-0.15-0.67-0.3-0.81-0.52c-0.22-0.3-0.37-0.59-0.44-0.96
		v-0.07c-0.07-0.37,0-0.67,0.15-1.03c0.15-0.37,0.37-0.59,0.67-0.81c-0.3-0.07-0.52-0.22-0.74-0.44c-0.22-0.22-0.3-0.44-0.37-0.74
		v-0.15c-0.07-0.52,0-1.03,0.37-1.4c0.3-0.37,0.81-0.59,1.4-0.74c0.59-0.15,1.11,0,1.55,0.3c0.44,0.3,0.67,0.67,0.74,1.18v0.15
		c0.07,0.3,0,0.59-0.15,0.81c-0.15,0.3-0.3,0.52-0.59,0.67c0.37,0.07,0.59,0.3,0.89,0.59s0.37,0.59,0.44,0.89V584
		c0.07,0.37,0,0.74-0.15,1.03s-0.37,0.59-0.67,0.74C210.78,586.07,210.41,586.22,209.97,586.29L209.97,586.29z M209.74,585.04
		c0.3,0,0.44-0.15,0.59-0.3c0.15-0.15,0.15-0.37,0.15-0.67V584c-0.07-0.22-0.15-0.37-0.37-0.52c-0.15-0.15-0.37-0.15-0.67-0.15
		c-0.3,0-0.44,0.15-0.59,0.3c-0.15,0.15-0.22,0.37-0.15,0.59v0.07c0.07,0.22,0.15,0.44,0.37,0.59
		C209.3,585.04,209.52,585.11,209.74,585.04L209.74,585.04z M209.3,582.15c0.22,0,0.37-0.15,0.52-0.3s0.15-0.37,0.15-0.59v-0.07
		c-0.07-0.22-0.15-0.37-0.3-0.52c-0.15-0.15-0.37-0.15-0.59-0.15c-0.22,0-0.37,0.15-0.52,0.3c-0.15,0.15-0.15,0.37-0.15,0.59v0.07
		c0.07,0.22,0.15,0.37,0.3,0.52C208.93,582.15,209.08,582.15,209.3,582.15L209.3,582.15z"/>
	<path class="st1" d="M214.48,585.11l1.55-3.55l0.22,0.15c-0.07,0.15-0.22,0.3-0.37,0.37s-0.37,0.07-0.59,0.07
		c-0.52,0-0.96-0.22-1.33-0.59s-0.52-0.89-0.52-1.48l0,0c0-0.67,0.15-1.26,0.52-1.63s0.89-0.59,1.55-0.59
		c0.67,0,1.18,0.22,1.55,0.59c0.37,0.37,0.52,0.89,0.52,1.63l0,0c0,0.3-0.07,0.59-0.15,0.96c-0.07,0.37-0.22,0.67-0.37,1.03
		l-1.26,3.03L214.48,585.11L214.48,585.11z M215.58,580.9c0.22,0,0.44-0.07,0.52-0.22c0.15-0.15,0.22-0.37,0.22-0.67l0,0
		c0-0.3-0.07-0.44-0.22-0.59c-0.15-0.15-0.3-0.22-0.52-0.22s-0.44,0.07-0.52,0.22c-0.15,0.15-0.22,0.37-0.22,0.59l0,0
		c0,0.3,0.07,0.52,0.22,0.67C215.14,580.82,215.36,580.9,215.58,580.9L215.58,580.9z"/>
	<path class="st1" d="M220.54,583.78v-1.18l2.37-3.1c0.07-0.15,0.22-0.3,0.22-0.44c0.07-0.15,0.07-0.3,0.07-0.37l0,0
		c0-0.22-0.07-0.37-0.15-0.44s-0.3-0.15-0.52-0.15c-0.22,0-0.37,0.07-0.52,0.22s-0.22,0.37-0.22,0.59l0,0h-1.33l0,0
		c0.07-0.67,0.22-1.18,0.67-1.55c0.37-0.37,0.89-0.52,1.48-0.52c0.67,0,1.11,0.15,1.48,0.44c0.37,0.3,0.52,0.74,0.52,1.33l0,0
		c0,0.3-0.07,0.67-0.15,0.96c-0.07,0.3-0.3,0.59-0.44,0.81l-1.7,2.14h2.37v1.26L220.54,583.78L220.54,583.78z"/>
	<path class="st0" d="M163.91,622.59l-0.52,0.81c7.69,8.5,17.82,13.01,30.16,13.01c21.81-0.07,39.92-16.63,41.99-38v-0.07
		c0.15-1.33,0.22-2.66,0.22-4.07c0-2.66-0.3-5.25-0.74-7.76c-0.15,0-19.59,0.67-34.89,7.76
		C184.76,601.52,171.75,610.84,163.91,622.59z"/>
	<path class="st0" d="M941.1,492.67c10.99,15.5,21.67,30.69,32.75,46.35c-1.58,0.16-2.61,0.4-3.56,0.4
		c-9.49,0-18.98-0.08-28.47,0.08c-2.45,0-3.95-0.79-5.38-2.85c-8.23-12.02-16.69-23.97-24.92-35.99c-1.58-2.29-3.16-3.32-5.93-3.16
		c-4.27,0.24-8.54,0.08-12.81,0.08c-1.19,0-2.37,0.16-4.11,0.24c-0.24,13.76,0,27.37-0.16,40.81c-2.69,1.03-23.81,1.27-28.32,0.4
		c-0.71-2.69-0.95-123.94-0.24-130.51c0.95-0.08,1.98-0.32,3.01-0.32c17.24,0,34.57-0.08,51.81,0.08
		c8.54,0.08,17.01,1.19,25.23,3.64c14.87,4.43,23.18,14.47,25.31,29.74c1.19,8.15,1.03,16.21-0.79,24.28
		c-2.69,11.63-9.33,20.17-20.25,25.15C943.4,491.48,942.53,491.96,941.1,492.67L941.1,492.67z M888.82,472.02
		c1.03,0.16,1.66,0.32,2.21,0.32c8.07,0,16.06,0.16,24.05-0.16c3.48-0.16,6.96-0.95,10.36-1.82c5.22-1.42,8.46-5.14,9.89-10.28
		c1.34-4.75,1.42-9.65,0.47-14.47c-1.03-5.69-4.35-9.41-9.97-10.92c-2.21-0.55-4.51-1.27-6.8-1.34c-9.25-0.32-18.43-0.4-27.68-0.47
		c-0.79,0-1.58,0.32-2.61,0.47L888.82,472.02L888.82,472.02z"/>
	<path class="st0" d="M687.61,408.35h93.57c0.79,2.93,0.95,20.33,0.24,25.23c-1.42,0.16-2.93,0.4-4.43,0.4c-18.59,0-37.25,0-55.84,0
		c-1.42,0-2.85,0-4.82,0c-0.08,9.33-0.08,18.11,0,27.45c6.8,0.16,13.21,0.08,19.62,0.08s12.89,0,19.38,0s12.89,0,19.77,0
		c0.4,8.15,0.16,15.98,0.16,24.28c-1.58,0.08-3.01,0.24-4.35,0.24c-16.53,0-33.06,0-49.67,0c-1.42,0-2.85,0-4.82,0
		c-0.24,9.41-0.16,18.35,0,27.6c7.75,0.55,15.19,0.16,22.54,0.24c7.44,0.08,14.87,0,22.23,0h22.62c0.4,8.54,0.16,16.69,0.16,24.76
		c-3.01,0.87-89.7,1.19-96.18,0.4c-0.16-1.19-0.47-2.45-0.47-3.72c0-41.13,0-82.26,0-123.39
		C687.29,410.88,687.45,409.7,687.61,408.35L687.61,408.35z"/>
	<path class="st0" d="M656.6,427.41c-4.59,6.56-9.18,13.29-14,20.33c-1.34-1.03-2.45-1.82-3.56-2.69
		c-6.64-5.22-13.92-8.7-22.38-9.81c-21.91-2.85-40.97,12.34-43.11,34.25c-0.55,6.01-0.32,11.94,1.19,17.72
		c4.51,17.56,20.41,28.71,38.6,27.13c5.62-0.47,11.07-1.42,16.29-3.48c3.01-1.19,4.67-2.77,4.19-6.17c-0.32-2.14-0.08-4.35-0.08-6.8
		c-1.66-0.16-3.01-0.32-4.27-0.32c-5.22,0-10.44,0-15.66,0c-1.27,0-2.61-0.16-4.11-0.32V474c17.24,0,34.17,0,51.49,0
		c0.16,1.58,0.4,2.85,0.4,4.11c0,12.5,0,25.07,0.08,37.57c0,2.37-0.87,4.11-2.53,5.69c-5.46,5.3-11.63,9.65-18.75,12.42
		c-17.01,6.72-34.33,7.75-51.81,2.45c-25.79-7.83-43.5-31.88-43.9-58.77c-0.08-7.36,0.47-14.55,2.45-21.67
		c6.49-23.49,27.76-42.16,51.97-45.56c20.09-2.77,38.44,1.34,54.58,14.08c0.79,0.63,1.5,1.27,2.21,1.9
		C656.05,426.47,656.21,426.78,656.6,427.41L656.6,427.41z"/>
	<path class="st0" d="M449.09,502.71v36.38h-28.32c-0.71-2.77-1.03-124.89-0.24-130.67c0.95-0.08,1.98-0.32,3.01-0.32
		c16.06,0,32.11-0.08,48.17,0.08c7.91,0.08,15.74,1.19,23.33,3.48c15.9,4.75,25.31,15.34,28.24,31.56
		c1.66,9.1,1.58,18.19-0.47,27.21c-2.85,12.5-10.05,21.36-21.83,26.42c-9.18,3.95-18.9,5.3-28.79,5.69
		c-6.09,0.24-12.18,0.08-18.27,0.08C452.5,502.79,451.15,502.79,449.09,502.71L449.09,502.71z M449.33,477.25
		c1.03,0.16,1.66,0.32,2.21,0.32c7.28,0,14.55,0.08,21.91-0.16c2.85-0.08,5.77-0.71,8.54-1.5c5.14-1.34,8.62-4.82,10.52-9.81
		c2.21-5.69,2.53-11.55,1.5-17.56c-1.19-6.72-5.06-11.23-11.55-13.29c-2.77-0.87-5.62-1.74-8.54-1.82
		c-7.36-0.4-14.79-0.4-22.23-0.47c-0.79,0-1.58,0.32-2.45,0.55v43.74H449.33z"/>
	<path class="st0" d="M1037.16,433.27c-6.64-0.71-13.05-0.24-19.46-0.32c-6.33-0.08-12.58,0-18.75,0
		c-0.95-3.32-1.03-21.04-0.16-24.52h67.47c0.08,1.5,0.16,2.77,0.16,4.11c0,26.89,0.08,53.79-0.08,80.6c0,5.22-0.47,10.44-1.5,15.58
		c-3.24,16.69-15.34,28.4-32.19,31.08c-18.67,3.01-34.88-2.29-48.57-15.27c-0.63-0.55-1.11-1.27-1.9-2.21
		c4.82-6.72,9.65-13.37,14.71-20.41c1.34,1.27,2.53,2.29,3.64,3.32c5.3,4.75,11.15,8.23,18.35,9.02
		c9.02,1.03,16.06-3.95,17.64-12.89c0.47-2.53,0.63-5.06,0.63-7.59c0.08-18.75,0-37.49,0-56.16
		C1037.4,436.19,1037.24,434.93,1037.16,433.27L1037.16,433.27z"/>
	<path class="st0" d="M836.34,474.32c0,7.99-6.09,14.08-14.08,14.08c-7.91,0-14.24-6.41-14.08-14.16c0.08-7.67,6.33-13.84,14-13.84
		C830.17,460.24,836.34,466.33,836.34,474.32L836.34,474.32z"/>
	<path class="st0" d="M707.03,693.43c-4.08,1.3-6.68,0.43-8.67-2.77c-2.51-3.73-5.38-7.28-8.15-10.84
		c-0.78-1.04-1.65-1.99-3.12-3.73c-1.21,6.16,0,11.7-0.95,17.51h-4.86c-1.04-3.03-1.3-23.5-0.35-28.09
		c4.42-1.39,4.94-1.21,7.63,2.34c3.03,3.9,5.98,7.8,8.93,11.7c0.78,1.04,1.65,1.91,3.29,2.69c0.09-1.65,0.17-3.29,0.17-4.94
		c0-2.95,0-5.9,0-8.76c0.09-3.55,0.35-3.81,3.9-3.73c0.52,0,1.04,0.17,2.08,0.35C707.12,674.62,707.12,683.98,707.03,693.43
		L707.03,693.43z"/>
	<path class="st0" d="M503.84,684.24c2.08,3.03,4.16,5.9,6.16,8.93c-5.03,1.82-6.59,1.39-9.28-2.43c-0.87-1.21-1.73-2.34-2.51-3.64
		c-1.39-2.51-3.38-3.12-6.5-1.99c-0.17,2.69-0.35,5.55-0.61,8.67h-5.38c-0.17-1.04-0.43-1.91-0.43-2.77c0-7.46-0.09-14.91,0-22.37
		c0-3.38,0.26-3.64,3.64-3.64c3.9,0,7.8-0.17,11.53,0.26c7.28,0.95,10.75,7.72,7.37,14.22
		C507.14,681.12,505.49,682.42,503.84,684.24L503.84,684.24z M491.88,679.12c2.51,0,4.77,0.17,6.94-0.09
		c2.6-0.35,3.99-2.17,3.9-4.68c-0.09-2.43-1.39-3.9-3.99-4.16c-2.17-0.17-4.42,0-6.94,0L491.88,679.12L491.88,679.12z"/>
	<path class="st0" d="M767.84,683.72c2.34,3.38,4.34,6.42,6.42,9.54c-5.64,1.56-6.59,1.3-9.36-2.77c-0.78-1.13-1.56-2.17-2.25-3.29
		c-1.39-2.51-3.29-3.29-6.42-2.08c-0.17,2.6-0.35,5.46-0.61,8.67h-5.12c-0.87-3.29-1.04-24.36-0.09-28.79
		c5.55,0,11.18-0.69,16.82,0.69c3.47,0.87,5.38,3.21,5.81,6.76C773.57,677.13,772.7,681.21,767.84,683.72L767.84,683.72z
		 M756.14,679.38c2.95-0.17,5.29,0,7.63-0.43c2.17-0.35,3.12-1.99,3.12-4.42s-0.95-3.81-3.38-4.16c-2.43-0.35-4.94-0.69-7.37,0.43
		L756.14,679.38L756.14,679.38z"/>
	<path class="st0" d="M566.45,693.86v-28.79c5.9-0.17,11.62-0.95,17.08,0.87c8.15,2.69,10.23,10.66,8.24,18.29
		c-1.21,4.6-4.25,7.63-8.84,8.84C577.63,694.56,572.26,694.12,566.45,693.86L566.45,693.86z M572.6,687.97
		c5.38,1.47,9.88,0.35,12.14-2.86c2.17-3.03,2.08-8.24,0-11.36c-2.25-3.21-6.76-4.34-12.14-2.95V687.97L572.6,687.97z"/>
	<path class="st0" d="M413.81,693.86V665.6c4.51-1.47,14.48-0.95,18.47,0.78c6.16,2.77,9.1,9.71,7.11,17.25
		c-1.3,5.12-4.51,8.32-9.62,9.62C424.65,694.56,419.44,694.04,413.81,693.86z M419.88,688.31c4.86,0.61,9.19,0.78,12.23-3.29
		c2.17-2.95,2.08-8.32-0.09-11.36c-2.25-3.21-7.02-4.34-12.14-2.77V688.31L419.88,688.31z"/>
	<path class="st0" d="M822.55,638.5c2.17,3.12,4.16,6.16,6.59,9.62c-1.65,0.17-2.6,0.26-3.64,0.35c-2.51,0.35-4.34-0.43-5.55-2.77
		c-0.69-1.3-1.73-2.34-2.43-3.64c-1.47-2.6-3.47-3.47-6.76-2.25c-0.17,2.51-0.35,5.29-0.52,8.32h-5.03
		c-1.04-2.95-1.21-24.19-0.09-28.44c5.38-0.17,11.01-0.78,16.47,0.43c6.68,1.56,8.84,11.1,3.73,16.13
		C824.46,636.94,823.59,637.63,822.55,638.5L822.55,638.5z M810.76,624.54v9.36c2.86-0.17,5.29-0.09,7.72-0.52
		c2.08-0.35,3.21-2.25,3.12-4.51c-0.09-2.17-1.04-3.55-3.21-3.9C816.05,624.63,813.62,624.63,810.76,624.54L810.76,624.54z"/>
	<path class="st0" d="M538.61,694.21c-8.76,0-15.17-6.42-15.17-15.09c0-8.5,6.68-15.09,15.35-15c8.58,0,15.35,6.76,15.26,15.17
		C553.96,687.88,547.37,694.3,538.61,694.21L538.61,694.21z M547.54,679.38c0-5.46-3.81-9.8-8.76-9.88
		c-4.86-0.09-9.02,4.34-9.1,9.62c-0.09,5.38,3.9,9.71,8.84,9.8C543.73,689.01,547.54,684.93,547.54,679.38L547.54,679.38z"/>
	<path class="st0" d="M471.61,679.21c0,8.67-6.5,15-15.26,15c-8.84,0-15.35-6.33-15.35-15c0-8.58,6.59-15.09,15.26-15.09
		C464.94,664.12,471.61,670.71,471.61,679.21z M447.42,679.04c-0.09,5.55,3.64,9.8,8.67,9.88c5.03,0.09,9.1-4.08,9.28-9.45
		c0.09-5.2-3.99-9.88-8.84-9.97C451.59,669.33,447.51,673.58,447.42,679.04L447.42,679.04z"/>
	<path class="st0" d="M444.7,639.89c-0.17,2.77-0.26,5.38-0.43,8.32h-5.29c-0.87-2.86-1.13-21.42-0.35-28.01
		c0.61-0.17,1.39-0.61,2.08-0.61c3.99,0,7.98-0.09,11.97,0.09c3.9,0.17,7.37,1.39,8.67,5.72c1.39,4.51,0.26,8.76-3.38,11.88
		c-0.43,0.35-0.78,0.69-1.39,1.3c2.08,3.03,4.08,6.07,6.24,9.28c-5.81,1.47-6.59,1.21-9.45-2.86c-0.69-0.95-1.47-1.91-2.08-2.95
		C449.9,639.28,447.82,638.59,444.7,639.89L444.7,639.89z M444.7,624.89v8.5c2.69,0.69,5.12,0.69,7.63,0.09
		c2.17-0.52,3.21-2.08,3.21-4.42s-0.95-3.81-3.38-4.16C449.9,624.71,447.48,624.89,444.7,624.89L444.7,624.89z"/>
	<path class="st0" d="M892.27,619.94c5.12,0,10.06-0.43,14.91,0.09c6.16,0.78,9.8,5.12,10.66,11.27
		c1.47,9.88-4.16,16.65-14.13,17.08c-3.81,0.17-7.63,0-11.36,0C891.4,644.74,891.4,623.76,892.27,619.94L892.27,619.94z
		 M898.08,643.01c4.68,0.26,9.1,0.78,12.23-3.38c2.17-2.86,2.08-8.5-0.09-11.27c-3.21-4.08-7.54-3.64-12.14-3.21V643.01
		L898.08,643.01z"/>
	<path class="st0" d="M934.64,618.82c8.76,0.09,15.17,6.5,15.09,15.17c-0.09,8.58-6.76,15-15.43,14.91
		c-8.76-0.09-15.17-6.59-15.09-15.26C919.29,624.97,925.8,618.73,934.64,618.82L934.64,618.82z M943.4,633.99
		c0.09-5.55-3.73-9.71-8.76-9.8c-5.03-0.09-9.1,4.16-9.19,9.54c-0.09,5.38,3.9,9.8,8.84,9.88
		C939.32,643.61,943.31,639.37,943.4,633.99z"/>
	<path class="st0" d="M1105.66,618.82c8.76-0.09,15.43,6.24,15.52,14.83c0.09,8.58-6.42,15.17-15.09,15.26
		c-8.67,0.09-15.43-6.33-15.52-14.91C1090.4,625.41,1096.9,618.9,1105.66,618.82L1105.66,618.82z M1096.9,633.73
		c0,5.46,3.99,9.8,8.93,9.8c4.77,0,8.84-4.25,9.02-9.45c0.17-5.38-3.81-9.88-8.84-9.97C1100.98,624.02,1096.99,628.18,1096.9,633.73
		L1096.9,633.73z"/>
	<path class="st0" d="M669.97,633.73c0,8.58-6.5,15.09-15.17,15.09c-8.67,0-15.26-6.42-15.35-15c0-8.67,6.42-15,15.26-15
		C663.55,618.73,669.97,625.06,669.97,633.73L669.97,633.73z M663.73,633.9c0-5.55-3.81-9.71-8.84-9.8c-5.03,0-9.02,4.25-9.1,9.62
		c-0.09,5.29,3.99,9.71,8.93,9.8C659.74,643.61,663.73,639.28,663.73,633.9L663.73,633.9z"/>
	<path class="st0" d="M612.17,648.21V619.6c5.98-0.09,11.62-0.87,17.17,0.87c5.03,1.56,8.15,5.12,8.67,10.4
		c0.26,2.95,0.09,6.16-0.78,9.02c-1.47,5.12-5.64,7.8-10.75,8.24C621.96,648.56,617.28,648.21,612.17,648.21L612.17,648.21z
		 M618.41,642.92c5.03,0.35,9.54,0.78,12.49-3.82c1.99-3.03,1.65-8.67-0.69-11.27c-3.21-3.64-7.37-3.29-11.97-2.69
		C618.06,631.22,617.89,637.02,618.41,642.92L618.41,642.92z"/>
	<path class="st0" d="M479.01,618.82c8.76,0,15.35,6.42,15.35,15c0.09,8.5-6.68,15.09-15.35,15.09c-8.67,0-15.35-6.5-15.35-15
		C463.75,625.23,470.25,618.82,479.01,618.82L479.01,618.82z M488.03,633.82c0-5.46-3.9-9.71-8.93-9.62c-4.94,0-9.02,4.34-9.02,9.71
		c0,5.29,4.16,9.71,9.02,9.71C484.12,643.53,488.03,639.19,488.03,633.82L488.03,633.82z"/>
	<path class="st0" d="M691.01,638.41c2.17,3.29,4.16,6.33,6.59,10.06c-2.51,0-4.25,0.17-5.9-0.09c-0.87-0.17-1.91-0.87-2.51-1.65
		c-1.3-1.56-2.34-3.29-3.47-4.86c-2.17-3.03-2.17-3.03-6.59-1.99c-0.17,2.69-0.26,5.38-0.43,8.32h-5.64v-28.35
		c6.07-0.43,11.79-0.95,17.6,0.52c3.12,0.78,4.86,3.03,5.38,6.24C696.82,631.56,695.52,635.55,691.01,638.41L691.01,638.41z
		 M679.13,633.21c2.77,1.13,5.38,0.78,7.89,0.17c1.91-0.43,2.69-1.91,2.77-3.82c0.09-1.65-0.09-3.47-1.73-4.08
		c-2.95-1.13-5.98-1.56-8.93,0V633.21L679.13,633.21z"/>
	<path class="st0" d="M788.74,694.21c-8.84,0-15.26-6.24-15.26-15c0-8.58,6.5-15.09,15.17-15.17c8.67,0,15.26,6.5,15.26,15.09
		C804,687.97,797.67,694.21,788.74,694.21L788.74,694.21z M797.76,679.12c-0.09-5.38-4.25-9.71-9.1-9.62
		c-4.94,0.09-8.84,4.51-8.84,9.88c0.09,5.46,4.08,9.62,9.1,9.54C793.95,688.84,797.85,684.5,797.76,679.12L797.76,679.12z"/>
	<path class="st0" d="M1061.93,648.04c-0.87-3.9-0.87-24.54,0.09-28.27c5.55-0.35,11.27-1.04,16.82,0.78
		c5.98,1.91,8.93,6.68,8.84,13.61c-0.09,6.76-3.29,11.53-9.28,13.35C1075.11,648.64,1067.48,648.82,1061.93,648.04L1061.93,648.04z
		 M1067.83,642.57c5.9,1.39,10.23,0.17,12.4-3.38c1.99-3.29,1.73-8.5-0.69-11.36c-2.43-2.95-7.2-3.9-11.7-2.25V642.57
		L1067.83,642.57z"/>
	<path class="st0" d="M561.09,639.8c-0.17,2.77-0.26,5.38-0.43,8.32h-5.03c-1.04-3.21-1.21-23.5-0.17-28.27
		c5.9-0.43,12.05-1.3,17.95,0.78c5.55,1.91,6.85,11.1,2.34,15.61c-0.78,0.69-1.65,1.39-2.69,2.34c2.08,3.03,4.16,6.07,6.76,9.8
		c-2.6,0-4.42,0.26-6.16,0c-0.87-0.09-1.82-0.95-2.43-1.65c-1.21-1.39-2.34-2.95-3.21-4.6C566.38,639.45,564.39,638.59,561.09,639.8
		L561.09,639.8z M561.18,633.99c3.03-0.26,5.55-0.26,7.98-0.69c2.08-0.43,2.77-2.25,2.86-4.25c0-2.17-0.87-3.64-3.03-4.08
		c-2.51-0.52-5.2-0.95-7.8,0.26V633.99L561.18,633.99z"/>
	<path class="st0" d="M712.12,665.08h19.94v4.94c-4.68,0.17-9.28,0.26-14.05,0.43v6.33h12.57v5.29h-12.57v6.33h14.48
		c0.17,1.91,0.26,3.38,0.35,4.77c-3.21,0.95-16.04,1.13-20.46,0.35C711.43,690.83,711.17,670.63,712.12,665.08L712.12,665.08z"/>
	<path class="st0" d="M648.79,693.26c4.08-9.45,8.15-18.81,12.05-27.92c0.69-0.17,1.04-0.35,1.47-0.35
		c5.55-0.17,4.68-0.35,6.68,4.25c2.95,6.68,5.81,13.44,8.76,20.2c0.52,1.21,0.95,2.43,1.47,3.64c-4.16,1.99-5.81,1.56-7.28-2.08
		c-1.04-2.51-2.43-3.64-5.12-3.29c-1.99,0.17-3.99,0.17-5.98,0c-2.17-0.17-3.38,0.61-4.34,2.69
		C654.69,694.64,654.17,694.73,648.79,693.26L648.79,693.26z M660.84,681.9c2.34,0.52,4.42,0.87,6.85-0.43
		c-1.13-2.51-2.17-4.77-3.47-7.72C662.32,676.7,661.1,678.95,660.84,681.9L660.84,681.9z"/>
	<path class="st0" d="M709.14,647.86c0.43-1.3,0.87-2.51,1.3-3.64c2.86-6.76,5.81-13.44,8.67-20.12c1.39-3.29,4.25-4.68,8.32-4.08
		c3.9,9.1,7.89,18.38,12.14,28.27c-1.82,0.17-2.95,0.17-4.08,0.35c-1.73,0.17-2.86-0.61-3.29-2.25c-0.87-3.81-3.47-4.6-6.94-4.16
		c-0.69,0.09-1.3,0.09-1.99,0c-3.73-0.52-6.33,0.43-7.54,4.42C715.21,648.82,713.82,648.9,709.14,647.86L709.14,647.86z
		 M724.05,628.61c-1.47,2.6-2.95,4.86-3.03,7.89h6.59C727,633.47,726.13,630.96,724.05,628.61L724.05,628.61z"/>
	<path class="st0" d="M610.55,648.21h-5.64c-0.43-0.87-1.13-1.73-1.39-2.77c-0.78-2.51-2.25-3.64-5.03-3.38
		c-1.99,0.17-3.99,0.17-5.98,0c-2.17-0.17-3.55,0.61-4.25,2.69c-0.35,1.13-0.95,2.17-1.56,3.47h-5.72c0.09-0.69-0.09-1.39,0.17-1.91
		c3.47-8.24,7.02-16.39,10.49-24.54c0.78-1.82,1.99-2.25,3.73-2.25c1.73,0.09,3.38-0.09,4.25,1.99c3.55,8.5,7.2,16.91,10.84,25.32
		C610.63,647.08,610.55,647.52,610.55,648.21L610.55,648.21z M596.24,628.87c-0.35,0-0.78,0.09-1.13,0.09
		c-0.95,2.34-1.99,4.77-3.12,7.37h7.54C598.23,633.56,597.28,631.22,596.24,628.87z"/>
	<path class="st0" d="M1060.14,648.21c-1.3,0.09-2.34,0.17-3.38,0.26c-1.91,0.17-3.12-0.61-3.55-2.43
		c-0.87-3.29-2.95-4.42-6.24-3.99c-1.73,0.17-3.47,0.09-5.2,0c-1.91-0.09-3.21,0.52-4.08,2.43c-1.99,4.42-2.17,4.34-7.54,3.47
		c0.17-0.87,0.26-1.73,0.61-2.6c3.29-7.72,6.76-15.35,9.88-23.15c0.95-2.25,2.25-2.86,4.51-2.86c2.17,0,3.38,0.87,4.16,2.86
		c3.21,7.72,6.59,15.43,9.88,23.15C1059.7,646.22,1059.79,647.08,1060.14,648.21z M1048.87,636.5c-1.21-2.86-2.25-5.29-3.64-8.32
		c-1.91,3.03-3.21,5.29-3.47,8.32H1048.87L1048.87,636.5z"/>
	<path class="st0" d="M595.55,693.78v-28.7c6.85-0.26,13.44-0.17,20.38,0c0.09,1.65,0.17,3.03,0.26,4.77
		c-4.77,1.21-9.45-0.09-14.39,0.95v6.16h12.57v5.2h-12.66v6.24c4.68,1.13,9.45-0.09,14.48,0.87v4.77L595.55,693.78L595.55,693.78z"
		/>
	<path class="st0" d="M860.82,648.21h-6.16c-0.35-0.52-0.69-0.78-0.78-1.13c-2.43-5.55-1.39-4.6-8.32-5.2
		c-5.12-0.43-8.15,1.21-9.1,6.24h-6.33c0.61-1.73,1.04-3.03,1.56-4.34c2.86-6.59,5.64-13.18,8.5-19.77c2.25-5.12,2.43-5.2,8.41-4.08
		C852.58,629.05,856.57,638.33,860.82,648.21L860.82,648.21z M848.94,636.5c-1.04-2.95-1.65-5.55-3.9-8.15
		c-1.21,2.95-2.95,5.03-2.95,8.15H848.94z"/>
	<path class="st0" d="M970.16,636.76v6.42h14.65v5.03h-20.98c-0.17-9.45-0.09-18.64-0.09-27.74c3.55-1.13,15.95-1.3,20.38-0.26v4.6
		c-2.43,0.09-4.77,0.17-7.2,0.17c-2.25,0.09-4.42,0.09-6.94,0.17v5.98c4.08,0.17,8.15,0.35,12.49,0.52v4.68
		C978.4,636.42,974.32,636.59,970.16,636.76L970.16,636.76z"/>
	<path class="st0" d="M800.38,619.6c0.17,0.95,0.43,1.47,0.43,1.99c0,0.78-0.09,1.56-0.09,2.6c-4.51,1.47-9.28,0-14.05,1.04v5.81
		c4.08,0.17,8.06,0.35,12.49,0.61c0.09,1.56,0.17,2.77,0.26,4.6c-4.34,0.17-8.32,0.35-12.83,0.52c-0.09,1.99-0.17,3.82-0.35,6.16
		c2.17,0.09,4.16,0.26,6.07,0.26c1.73,0.09,3.47,0,5.2,0c4.08,0.09,4.42,0.61,3.12,5.03h-20.29c-0.35-9.36-0.09-18.64-0.17-28.27
		C787.03,619.08,793.71,619.51,800.38,619.6L800.38,619.6z"/>
	<path class="st0" d="M775.87,623.59c-0.78,1.21-1.65,2.51-2.6,3.9c-1.3-0.69-2.34-1.3-3.47-1.73c-3.81-1.56-8.06-0.61-10.49,2.43
		s-2.69,7.98-0.52,11.27c2.08,3.12,5.9,4.6,9.88,3.38c0.95-0.26,2.25-1.3,2.43-2.17c0.35-1.73-1.3-1.56-2.51-1.73
		c-0.69-0.09-1.3-0.17-2.17-0.26c-0.17-0.61-0.43-1.21-0.43-1.91c-0.09-0.69,0.09-1.3,0.17-2.25c3.38-0.87,6.85-0.43,10.32-0.35
		c1.3,3.03,0.69,6.16,0.52,9.1c0,0.78-0.87,1.65-1.56,2.17c-4.34,3.73-15.17,4.68-20.81-1.82c-5.03-5.81-4.6-15,1.04-20.29
		C761.22,618.21,770.06,618.21,775.87,623.59L775.87,623.59z"/>
	<path class="st0" d="M419.5,640.75c-0.17,2.51-0.43,4.86-0.61,7.46h-5.12c-0.95-3.29-0.95-24.71,0-28.53
		c5.03-0.17,10.23-0.69,15.26,0.43c4.77,1.04,6.94,4.34,6.94,9.8s-1.99,8.58-6.94,9.71C426.17,640.23,423.05,640.32,419.5,640.75
		L419.5,640.75z M419.5,635.03c2.51-0.09,4.77,0,6.94-0.35s3.12-1.99,3.29-4.42c0.17-2.43-0.61-4.16-2.6-4.86
		c-2.51-0.87-5.12-1.39-7.63,0V635.03L419.5,635.03z"/>
	<path class="st0" d="M1008.03,622.63c-0.95,1.39-1.73,2.51-2.69,3.9c-1.13-0.52-2.08-1.04-3.03-1.3c-1.65-0.43-3.29-0.87-5.03-1.04
		c-1.73-0.17-3.21,0.43-3.55,2.43c-0.26,1.82,0.87,2.69,2.34,3.29c1.13,0.43,2.25,0.69,3.38,1.13c1.47,0.52,3.03,0.95,4.51,1.56
		c3.47,1.47,5.03,4.16,4.94,7.89c-0.17,3.55-2.43,6.42-6.07,7.63c-3.73,1.21-7.37,0.95-10.92-0.52c-1.99-0.87-3.82-2.17-6.07-3.47
		c1.39-1.73,2.43-3.03,3.55-4.42c1.65,0.95,2.86,1.99,4.34,2.51c1.82,0.61,3.81,1.04,5.72,1.04c1.39,0.09,2.51-0.87,2.77-2.43
		c0.26-1.56-0.52-2.6-1.91-3.12c-1.21-0.52-2.51-0.87-3.73-1.3c-1.65-0.52-3.29-1.04-4.86-1.73c-3.21-1.3-4.6-3.9-4.6-7.28
		c0-3.55,1.56-6.07,4.86-7.63C996.58,617.69,1003.26,618.73,1008.03,622.63L1008.03,622.63z"/>
	<path class="st0" d="M525.92,619.86h6.16c0,4.51,0,8.76,0,13.01c0,1.73,0,3.47,0.35,5.2c0.69,3.47,2.95,5.29,6.07,5.29
		c3.12,0,5.46-1.91,5.9-5.38c0.43-4.08,0.35-8.24,0.43-12.4c0.09-1.82,0.17-3.64,0.26-5.72h5.03c0.26,0.61,0.61,1.04,0.61,1.56
		c0,5.64,0.35,11.18-0.09,16.73c-0.52,6.76-5.38,10.66-12.14,10.75c-6.59,0-11.27-3.9-12.31-10.23c-0.17-1.21-0.17-2.43-0.17-3.55
		C525.92,630.09,525.92,625.15,525.92,619.86L525.92,619.86z"/>
	<path class="st0" d="M520.31,639.71c1.21,1.3,2.25,2.43,3.21,3.47c-3.73,6.5-15.17,7.89-21.76,1.91
		c-6.24-5.64-6.5-15.87-0.43-21.85c6.33-6.24,16.65-5.98,22.46,0.87c-0.43,0.61-0.78,1.3-1.3,1.91c-0.61,0.69-1.3,1.3-1.91,1.82
		c-6.94-4.08-11.79-3.99-15.26,0.17c-2.86,3.47-2.69,9.19,0.52,12.49C509.3,644.13,514.07,643.96,520.31,639.71L520.31,639.71z"/>
	<path class="st0" d="M628.04,690.74c1.39-1.91,2.25-3.03,3.12-4.25c1.39,0.69,2.51,1.39,3.73,1.82c2.95,1.13,5.29-0.09,5.46-3.21
		c0.26-4.77,0.09-9.54,0.09-14.74c-2.77-0.17-5.2-0.35-8.06-0.52v-4.77h13.44c0.26,0.35,0.61,0.61,0.61,0.78
		c0.09,6.94,0.43,13.87,0,20.72c-0.43,5.81-6.16,9.02-12.31,7.2C632.2,693.26,630.47,691.96,628.04,690.74L628.04,690.74z"/>
	<path class="st0" d="M1025.05,624.97v23.15h-6.07v-22.98c-2.86-0.26-5.29-0.52-8.06-0.87c-0.09-1.3-0.17-2.6-0.26-4.34
		c7.46-0.78,14.74-0.26,22.37-0.35v4.77C1030.43,624.54,1028.08,624.71,1025.05,624.97L1025.05,624.97z"/>
	<path class="st0" d="M862.01,619.86h5.38c0.78,7.8-0.17,15.35,0.69,23.32h11.97v5.2c-6.07,0.17-11.97,0.17-17.77,0
		C861.31,645.09,861.14,624.71,862.01,619.86L862.01,619.86z"/>
	<path class="st0" d="M743.28,665.43v28.35h-5.55c-0.09-1.47-0.26-2.77-0.26-4.08c0-6.68,0-13.35,0-20.03
		C737.47,664.64,737.81,664.3,743.28,665.43L743.28,665.43z"/>
	<path class="st0" d="M518.38,693.86H513c-0.35-9.54-0.09-18.9-0.09-28.61h5.29C519.25,668.2,519.33,689.18,518.38,693.86z"/>
	<path class="st0" d="M705.9,648.21h-5.12c-0.87-3.03-1.04-23.24-0.26-28.35h5.38V648.21L705.9,648.21z"/>
	<path class="st0" d="M413.06,592.17h708.12c-0.94,1.87-1.33,3.41-1.8,3.41c-1.57,0.34-3.13,0.34-4.7,0.34
		c-218.42,0-683.45,0-697.55,0C415.88,595.92,414.23,597.29,413.06,592.17L413.06,592.17z"/>
</g>
</svg>
