<svg width="741" height="288" viewBox="0 0 741 288" fill="none" xmlns="http://www.w3.org/2000/svg">
<g clip-path="url(#clip0_108_324)">
<path d="M116.732 36.7112C72.4683 36.7112 36.6075 84.7761 36.6075 144.107C36.6075 203.439 72.5154 251.503 116.732 251.503C160.95 251.503 196.857 203.439 196.857 144.107C196.857 84.7761 161.003 36.7112 116.732 36.7112Z" fill="#005A92"/>
<path d="M117.331 36.7112C73.0672 36.7112 37.2064 84.7761 37.2064 144.107C37.2064 203.439 73.0672 251.503 117.331 251.503C161.596 251.503 197.456 203.439 197.456 144.107C197.456 84.7761 161.596 36.7112 117.331 36.7112ZM171.546 70.5371L149.862 96.4786L136.782 95.7874L132.806 42.5624C132.806 42.5624 132.557 44.9915 131.81 44.6426C146.377 48.8163 161.649 56.0029 171.546 70.5371ZM160.304 119.3C152.546 127.386 156.327 130.512 145.731 132.546C135.188 134.579 127.975 136.961 127.08 139.987C127.08 140.034 125.143 142.866 125.143 142.913L126.683 154.622C126.683 154.823 126.784 154.971 126.979 155.018C144.439 159.386 157.37 174.907 157.37 193.36C157.37 194.105 159.012 192.219 158.965 193.011C158.965 193.259 161.602 193.36 161.851 193.36L183.933 192.367C184.229 192.367 184.034 195.594 183.886 195.836C171.25 225.75 144.298 249.061 117.937 249.061C91.5762 249.061 63.8699 227.481 51.2412 197.574C51.1403 197.326 50.7905 192.662 51.0932 192.662L75.6104 191.816C75.8594 191.816 76.4582 192.36 76.4582 192.165C76.4111 191.421 76.66 194.152 76.66 193.353C76.66 173.86 91.0312 157.635 109.984 154.367C110.233 154.32 110.381 154.119 110.28 153.871C109.184 150.301 107.044 141.074 113.066 137.451C113.066 137.451 103.418 137.249 98.5936 146.228C98.5465 146.328 98.1428 146.872 97.9948 146.919C95.7073 147.066 76.6062 149.797 71.3852 143C71.1833 142.752 71.3381 142.403 71.6341 142.356C74.1235 141.859 83.5698 138.732 92.0741 135.062C127.39 119.837 88.4409 130.204 88.8917 130.049C91.1322 129.358 105.651 124.292 107.542 123.205C107.939 122.957 98.4389 120.427 97.9948 120.528C94.9133 121.467 86.954 128.265 79.9904 128.016C79.5396 128.016 79.4454 127.372 79.8895 127.225C82.13 126.533 89.1406 124.594 91.2802 123.453C91.6771 123.252 90.8832 117.502 90.4324 117.602C86.2543 118.542 73.3229 126.433 68.2028 125.044C67.8058 124.943 67.8058 124.353 68.2499 124.252C70.1876 123.903 77.8509 122.514 80.5354 121.823C81.0333 121.722 80.5825 114.032 76.3573 117.508C73.8679 119.541 68.5997 122.467 66.4131 122.272C66.2651 122.272 66.1171 122.319 66.0162 122.474C65.1213 123.863 64.3274 124.956 63.7757 125.05C62.4839 125.252 49.1017 122.373 44.7755 120.883C44.5737 120.836 44.4795 120.635 44.5266 120.434C52.2235 75.6972 87.7345 35.1746 121.859 41.8176C124.046 42.2672 123.003 42.5624 123.851 43.0053C124.053 43.106 124.1 43.3542 123.999 43.5019C121.166 47.6219 119.323 69.4433 118.031 76.442C117.984 76.6433 117.829 76.7373 117.681 76.7373C112.756 76.9855 110.92 79.5153 110.321 80.703C110.173 80.9982 109.823 80.9982 109.628 80.75C108.78 79.5623 106.741 77.1802 104.306 77.3747C101.668 77.576 98.237 80.9982 97.0933 82.2329C96.8914 82.4342 96.5954 82.3805 96.4473 82.1859C95.8485 81.0922 94.2069 78.7168 91.4215 79.2603C86.4965 80.2534 84.7068 86.2523 84.5588 86.8025C84.5588 86.8495 84.5588 86.8495 84.5117 86.8495L69.6426 115.374C69.6426 115.374 69.5417 115.576 69.3937 115.918C71.5803 115.77 73.5247 115.569 74.3657 115.274C76.5053 114.482 96.1513 108.329 97.793 108.376C99.4346 108.476 125.842 100.833 125.842 100.833C125.842 100.833 132.907 98.8473 134.798 98.9479C136.688 99.0486 139.124 99.0486 142.205 107.973C143.948 114.67 147.776 114.569 148.072 114.569C148.22 114.569 151.752 112.784 153.044 112.583C154.834 112.335 168.216 106.181 172.145 106.134C174.036 106.088 174.083 107.027 175.281 107.175C178.207 107.691 167.066 112.261 160.304 119.3Z" fill="#A0A0A0"/>
<path d="M195.472 155.018H126.381C126.381 155.166 126.482 155.313 126.63 155.367C143.786 159.735 156.469 175.256 156.469 193.709C156.469 194.205 156.469 194.702 156.422 195.198H186.51C191.293 182.993 194.422 169.452 195.472 155.018Z" fill="#427942"/>
<path d="M77.1915 193.709C77.1915 174.712 90.5737 158.883 108.477 155.018H38.8951C39.938 169.452 43.0733 182.993 47.8502 195.198H77.2453C77.1915 194.702 77.1915 194.205 77.1915 193.709Z" fill="#427942"/>
<path d="M116.786 234.285C139.2 234.285 157.37 216.164 157.37 193.81C157.37 171.455 139.2 153.334 116.786 153.334C94.3726 153.334 76.2025 171.455 76.2025 193.81C76.2025 216.164 94.3726 234.285 116.786 234.285Z" fill="white"/>
<path d="M115.091 11.8568L119.222 0L123.346 11.8568H136.681L126.582 20.1439L130.263 32.8932L119.121 25.2034L108.679 32.8932L112.406 20.1439L101.218 11.6623L115.091 11.8568Z" fill="#BB9B32"/>
<path d="M61.4747 34.9732C61.8245 34.9732 75.0049 17.9093 74.359 17.661C73.666 17.4128 61.4747 28.3235 58.743 31.6517C59.537 29.0213 64.0179 22.13 62.5242 21.3315C61.0306 24.4047 45.6636 44.3473 45.6636 44.3473C45.6636 44.3473 38.1551 53.4731 30.1486 69.1481L29.7988 68.8998L34.421 50.5475L28.8501 47.8702L15.0709 71.7784V73.617C15.0709 74.3082 27.1075 60.3712 27.1075 60.3712V75.4019C22.7814 84.776 18.5494 95.935 15.5217 108.537L15.0239 92.5128L8.9551 91.4728L2.24046 118.213C2.24046 118.213 2.53649 119.306 2.73834 119.998C2.94018 120.689 10.6977 103.974 10.6977 103.974L13.981 115.529C11.6463 127.58 10.5497 140.779 11.4916 154.817L6.71464 136.565L0.544976 136.86L0 164.439C0 164.439 1.14378 165.432 1.78967 165.727C2.43557 166.023 5.07299 148.663 5.07299 148.663L12.0837 161.46C13.4764 173.364 16.3627 185.764 21.2877 198.567L20.8369 198.668L10.59 182.744L4.97207 185.026L12.9785 211.417C12.9785 211.417 13.8262 212.209 14.3241 212.658C14.822 213.155 12.9314 194.849 12.9314 194.849L24.2212 205.465C28.7492 215.731 34.6161 226.199 42.0775 236.768L41.2298 237.217L26.6567 225.112L21.8327 228.93L37.4486 251.698C37.4486 251.698 38.4915 252.194 39.1374 252.49C39.7833 252.785 32.4227 235.922 32.4227 235.922L46.4508 242.666C48.1396 244.901 49.9292 247.128 51.7727 249.41C51.7727 249.41 53.3673 251.892 56.6439 251.195C59.9272 248.96 57.0947 246.531 57.0947 246.531C54.6053 243.652 52.2235 240.774 50.0302 237.848L48.2876 224.253L60.2232 236.553L61.764 236.654L46.4441 212.598L40.9203 215.228L46.3432 232.789C39.0297 222.522 33.4118 212.202 29.1865 201.935L31.6759 188.441L39.3325 203.767L40.7723 204.311L33.4588 176.779L27.3901 177.624L27.2421 196.822C22.5661 184.174 19.9825 171.72 18.8858 159.668L25.0016 148.408L28.6819 164.627L30.2765 165.472V136.552L24.2615 136.8L18.5426 153.911C17.9438 141.557 18.8387 129.754 20.7293 118.79L30.189 108.04L28.8972 125.104L29.8391 126.292L37.6976 98.9076L32.0258 96.5255L21.8327 113.294C24.7661 99.2565 29.1932 86.8025 33.8222 76.5896L44.7621 69.5439L38.7942 85.6148L39.3392 87.0508L54.4102 62.8405L49.6332 59.0224L36.3587 71.3356C42.2794 59.4787 50.5819 48.2191 53.7172 45.6424C55.7087 44.0051 72.5693 29.8668 72.4213 29.3702C72.2665 28.8737 66.8975 31.4504 61.4747 34.9732Z" fill="#427942"/>
<path d="M219.39 165.285C219.39 165.285 220.487 159.037 217.997 155.166C218.394 155.018 218.744 154.77 219.04 154.421C220.285 153.179 220.231 151.146 218.939 149.959C218.892 149.912 218.791 149.858 218.737 149.811C218.69 149.663 218.636 149.462 218.838 149.314C219.087 149.113 219.235 149.167 219.336 149.214C219.383 149.261 219.437 149.314 219.484 149.415C220.729 150.656 222.767 150.603 223.958 149.368C225.203 148.127 225.149 146.094 223.857 144.906C222.613 143.664 220.574 143.718 219.383 144.953C219.282 145.053 219.181 145.201 219.087 145.349L219.134 145.302C219.134 145.302 218.737 145.798 218.441 145.302C218.145 144.852 218.542 144.705 218.542 144.705H218.495C218.643 144.604 218.791 144.456 218.946 144.356C220.191 143.114 220.137 141.081 218.845 139.893C218.394 139.444 217.849 139.202 217.25 139.048C217.499 139.001 217.748 138.947 217.997 138.9C228.143 136.324 230.68 126.601 229.583 122.132C224.86 121.534 220.285 126.943 220.285 126.943C220.285 126.943 219.834 121.138 216.806 117.864C216.907 117.763 216.954 117.716 217.055 117.616C218.051 116.18 217.701 114.193 216.261 113.2C216.214 113.153 216.113 113.1 216.012 113.1C215.911 112.952 215.864 112.804 216.012 112.556C216.214 112.308 216.409 112.355 216.51 112.409C216.557 112.456 216.611 112.509 216.658 112.556C218.098 113.549 220.09 113.2 221.085 111.764C222.081 110.328 221.731 108.342 220.291 107.349C218.852 106.356 216.86 106.705 215.864 108.141C215.763 108.289 215.716 108.436 215.615 108.537V108.436C215.615 108.436 215.266 108.98 214.922 108.584C214.573 108.188 214.922 107.987 214.922 107.987L214.875 108.034C215.023 107.886 215.124 107.738 215.272 107.584C216.268 106.148 215.918 104.162 214.478 103.169C214.081 102.92 213.684 102.719 213.234 102.672C221.738 98.1562 222.438 88.7351 220.641 84.7157C215.918 84.917 212.332 91.1172 212.332 91.1172C212.332 91.1172 210.69 84.8701 206.761 82.3873C207.158 82.0384 207.454 81.5955 207.609 81.0453C208.107 79.361 207.212 77.5761 205.523 77.0796C205.422 77.0326 205.375 77.0326 205.274 77.0326C205.126 76.9319 205.025 76.7843 205.126 76.5361C205.227 76.2408 205.422 76.1871 205.523 76.2408C205.57 76.2878 205.671 76.2878 205.725 76.3415C207.414 76.885 209.204 75.8919 209.701 74.2613C210.199 72.577 209.304 70.7922 207.616 70.2956C205.927 69.7521 204.137 70.7452 203.639 72.3757C203.592 72.5234 203.592 72.671 203.538 72.8253V72.7247C203.538 72.7247 203.39 73.3219 202.94 73.0736C202.489 72.8253 202.738 72.4764 202.738 72.4764L202.691 72.5234C202.792 72.3757 202.839 72.1744 202.94 71.9799C203.438 70.2956 202.543 68.5107 200.854 68.0141C200.457 67.9135 200.06 67.8665 199.663 67.8665C207.521 60.9685 205.335 51.1985 202.348 47.7294C197.873 49.3197 196.279 56.2647 196.279 56.2647C196.279 56.2647 192.8 50.6617 188.272 49.521C188.42 49.172 188.474 48.8298 188.474 48.4272C188.474 46.6893 187.034 45.2533 185.292 45.2533C185.191 45.2533 185.144 45.2533 185.043 45.3003C184.895 45.2533 184.747 45.099 184.747 44.8507C184.747 44.5554 184.949 44.4548 185.043 44.4548C185.144 44.4548 185.191 44.5018 185.292 44.5018C187.034 44.5018 188.474 43.0658 188.474 41.3279C188.474 39.5899 187.034 38.1539 185.292 38.1539C183.549 38.1539 182.109 39.5899 182.109 41.3279C182.109 41.4755 182.109 41.6231 182.157 41.8244V41.7238C182.157 41.7238 182.204 42.3679 181.659 42.2203C181.114 42.0727 181.309 41.7238 181.309 41.7238V41.7707C181.356 41.5694 181.356 41.3748 181.356 41.1735C181.356 39.4356 179.916 37.9996 178.174 37.9996C178.025 37.9996 177.877 38.0466 177.723 38.0466C182.002 29.565 177.225 21.5262 173.497 19.1978C169.716 22.0764 170.261 29.1691 170.261 29.1691C170.261 29.1691 164.193 23.9083 159.12 25.398C159.12 32.296 165.188 35.8121 165.188 35.8121C160.263 36.161 155.89 40.8716 156.334 42.0123C156.731 43.0524 168.62 47.1724 174.984 41.6634C175.233 43.2 176.525 44.3944 178.12 44.3944C178.221 44.3944 178.322 44.3944 178.416 44.3474C178.564 44.3474 178.813 44.4481 178.813 44.797C178.813 45.3405 178.416 45.2466 178.416 45.2466L178.564 45.2936C178.416 45.2936 178.315 45.2466 178.167 45.2466C176.424 45.2466 174.984 46.6826 174.984 48.4205C174.984 50.1584 176.424 51.5944 178.167 51.5944C179.808 51.5944 181.154 50.353 181.302 48.7157C181.403 48.5681 181.551 48.3668 181.8 48.3668C182.197 48.4138 182.15 48.8634 182.15 48.8634V48.8164C182.352 50.4067 183.643 51.5944 185.285 51.5944C185.682 51.5944 186.032 51.4937 186.382 51.3931C185.736 56.9491 189.463 61.0691 189.463 61.0691C184.639 59.9284 179.068 63.0554 179.169 64.2967C179.27 65.3905 189.416 72.9797 197.174 69.5575C197.073 69.7588 196.972 69.9534 196.925 70.1547C196.427 71.8389 197.322 73.6238 199.01 74.1204C199.111 74.1674 199.212 74.1674 199.306 74.1674C199.454 74.2143 199.656 74.3687 199.555 74.7109C199.407 75.2074 199.01 75.0061 199.01 75.0061L199.111 75.0531C199.01 75.0061 198.862 74.9525 198.762 74.9055C197.073 74.362 195.283 75.3551 194.785 76.9856C194.287 78.6699 195.182 80.4548 196.871 80.9513C198.465 81.4479 200.107 80.6561 200.753 79.1664C200.854 79.0188 201.049 78.8712 201.352 78.9651C201.749 79.1127 201.554 79.5623 201.554 79.5623C201.258 81.099 202.152 82.6893 203.74 83.1321C203.989 83.2328 204.285 83.2328 204.534 83.2798C202.045 88.4868 204.487 93.7476 204.487 93.7476C200.208 91.2179 193.944 92.6069 193.695 93.7946C193.446 94.8883 201.453 105.752 210.206 103.913C210.206 103.96 210.159 103.96 210.105 104.014C209.109 105.45 209.459 107.436 210.899 108.429C211 108.476 211.047 108.53 211.148 108.577C211.296 108.678 211.397 108.872 211.195 109.174C210.899 109.624 210.596 109.322 210.596 109.322L210.697 109.423C210.596 109.322 210.495 109.221 210.401 109.174C208.961 108.181 206.97 108.53 205.974 109.966C204.978 111.402 205.328 113.388 206.768 114.381C208.114 115.321 209.95 115.026 210.993 113.838C211.141 113.737 211.39 113.637 211.592 113.838C211.888 114.086 211.592 114.435 211.592 114.435C210.845 115.824 211.242 117.609 212.588 118.501C212.79 118.649 213.039 118.75 213.234 118.85C210.65 123.313 211.989 128.224 211.989 128.224C208.262 124.997 201.843 125.299 201.345 126.439C200.894 127.48 206.714 139.236 215.467 139.289C215.07 139.437 214.62 139.685 214.324 140.034C213.079 141.276 213.133 143.309 214.425 144.497C214.472 144.544 214.573 144.597 214.673 144.698C214.774 144.845 214.875 145.047 214.626 145.295C214.229 145.691 214.028 145.342 214.028 145.342L214.128 145.443C214.028 145.342 213.98 145.241 213.88 145.147C212.635 143.906 210.596 143.96 209.405 145.194C208.161 146.436 208.214 148.469 209.506 149.657C210.697 150.797 212.541 150.844 213.732 149.804C213.88 149.757 214.128 149.704 214.33 149.905C214.579 150.2 214.229 150.502 214.229 150.502H214.277C213.335 151.743 213.429 153.575 214.573 154.716C214.774 154.917 215.023 155.112 215.319 155.213C211.094 158.93 211.094 164.587 211.094 164.587C208.262 160.567 201.991 159.232 201.244 160.218C200.551 161.111 203.236 173.86 211.639 176.142C211.592 176.142 211.538 176.189 211.491 176.189C209.95 177.081 209.452 179.014 210.347 180.557C210.394 180.658 210.448 180.705 210.495 180.805C210.542 180.953 210.596 181.201 210.293 181.349C209.796 181.597 209.695 181.201 209.695 181.201L209.742 181.302C209.695 181.201 209.641 181.053 209.594 180.953C208.699 179.416 206.761 178.92 205.214 179.812C203.673 180.705 203.175 182.637 204.07 184.18C204.918 185.616 206.654 186.113 208.147 185.469C208.349 185.469 208.598 185.469 208.692 185.717C208.894 186.066 208.443 186.261 208.443 186.261H208.49C207.246 187.2 206.849 188.992 207.643 190.381C207.939 190.877 208.288 191.226 208.739 191.474C203.37 194.004 202.025 199.808 202.025 199.808C200.235 195.192 194.415 192.467 193.466 193.259C192.619 193.95 192.222 206.156 199.084 210.719C197.544 211.263 196.649 212.9 197.093 214.49C197.093 214.591 197.14 214.691 197.194 214.738C197.194 214.886 197.194 215.134 196.844 215.235C196.299 215.336 196.299 214.94 196.299 214.94V215.087C196.299 214.94 196.299 214.839 196.252 214.691C195.801 213.007 194.065 211.96 192.37 212.41C190.681 212.86 189.631 214.591 190.082 216.282C190.479 217.872 192.074 218.858 193.662 218.61C193.863 218.657 194.059 218.711 194.112 219.006C194.213 219.402 193.715 219.456 193.715 219.456H193.763C192.269 220.053 191.428 221.637 191.872 223.173C191.973 223.468 192.074 223.77 192.222 224.019C186.799 225.455 184.363 230.467 184.363 230.467C183.67 225.555 178.644 221.589 177.548 222.133C176.606 222.63 173.471 234.037 178.793 240.136C178.745 240.136 178.644 240.136 178.591 240.136C176.848 240.089 175.354 241.478 175.354 243.263C175.354 243.364 175.354 243.465 175.354 243.559C175.354 243.706 175.254 243.954 174.904 243.954C174.359 243.954 174.453 243.505 174.453 243.505L174.406 243.652C174.406 243.505 174.453 243.404 174.453 243.257C174.5 241.519 173.107 240.029 171.318 240.029C169.575 239.982 168.081 241.371 168.081 243.156C168.034 244.793 169.272 246.135 170.867 246.384C171.015 246.484 171.217 246.632 171.217 246.88C171.17 247.276 170.719 247.229 170.719 247.229C169.124 247.377 167.886 248.665 167.832 250.302C167.785 252.04 169.178 253.53 170.968 253.53C172.71 253.577 174.204 252.188 174.204 250.403C174.204 250.302 174.204 250.255 174.204 250.155C174.251 250.007 174.406 249.859 174.655 249.906C174.951 249.953 175.052 250.108 175.052 250.202C175.052 250.249 175.052 250.349 175.052 250.45C175.005 252.188 176.397 253.677 178.187 253.677C179.93 253.724 181.423 252.335 181.423 250.551C181.423 248.766 180.078 247.323 178.288 247.323C178.14 247.323 177.992 247.323 177.79 247.37H177.891C177.891 247.37 177.245 247.417 177.393 246.873C177.541 246.377 177.891 246.524 177.891 246.524H177.844C178.046 246.571 178.241 246.571 178.389 246.571C180.131 246.618 181.625 245.229 181.625 243.444C181.625 243.096 181.578 242.753 181.477 242.451C181.578 242.498 181.679 242.552 181.726 242.599C191.078 247.31 199.38 241.66 201.52 237.587C198.385 234.017 191.327 235.104 191.327 235.104C191.327 235.104 195.007 230.145 194.711 225.629C195.061 225.629 195.404 225.629 195.754 225.528C197.443 225.079 198.492 223.348 198.042 221.657C198.042 221.556 197.994 221.509 197.941 221.408C197.941 221.261 198.042 221.059 198.291 221.012C198.587 220.965 198.741 221.059 198.788 221.214C198.788 221.261 198.788 221.361 198.836 221.462C199.286 223.146 201.022 224.193 202.718 223.743C204.406 223.294 205.456 221.563 205.005 219.872C204.554 218.181 202.819 217.141 201.123 217.59C200.975 217.637 200.827 217.691 200.672 217.738L200.719 217.691C200.719 217.691 200.121 217.892 200.121 217.342C200.121 216.798 200.518 216.845 200.518 216.845H200.47C200.672 216.845 200.867 216.798 201.015 216.745C202.704 216.295 203.754 214.564 203.303 212.873C203.256 212.625 203.155 212.423 203.054 212.229C212.803 214.161 219.316 207.022 220.413 202.707C216.53 199.976 209.917 202.606 209.917 202.606C209.917 202.606 212.655 196.306 210.764 191.89C211.161 191.843 211.612 191.689 212.009 191.494C213.55 190.602 214.048 188.669 213.153 187.126C213.106 187.079 213.052 186.979 213.005 186.925C213.005 186.777 213.005 186.576 213.254 186.475C213.55 186.328 213.705 186.428 213.752 186.522C213.799 186.569 213.799 186.67 213.853 186.724C214.747 188.26 216.685 188.757 218.233 187.864C219.773 186.972 220.271 185.039 219.376 183.496C218.482 181.959 216.544 181.463 214.996 182.355C214.848 182.456 214.747 182.557 214.599 182.65L214.647 182.604C214.647 182.604 214.149 182.952 213.954 182.456C213.758 181.959 214.203 181.912 214.203 181.912H214.155C214.357 181.865 214.505 181.765 214.653 181.664C216.194 180.772 216.692 178.839 215.797 177.296C215.595 176.947 215.299 176.652 215.003 176.403C224.9 175.954 229.529 167.526 229.576 163.057C225.21 161.171 219.444 165.285 219.39 165.285Z" fill="#427942"/>
<path d="M115.34 170.841L117.035 166.378L118.623 170.841H124.591L119.969 174.511L121.859 180.611L117.035 176.846L112.157 180.859L113.651 174.659L109.271 170.841H115.34Z" fill="#005A92"/>
<path d="M159.362 127.634C156.624 130.459 156.724 132.197 150.212 132.988C143.699 133.78 137.529 137.303 137.529 137.303C137.529 137.303 154.538 138.645 157.323 138.397C160.109 138.149 168.909 135.371 168.216 129.768C167.516 124.212 160.95 125.996 159.362 127.634Z" fill="white"/>
<path d="M175.826 106.899C174.635 106.752 174.534 105.806 172.643 105.806C168.613 105.853 155.137 112.053 153.293 112.301C151.45 112.549 146.78 112.549 146.78 112.549C146.78 112.549 148.523 114.287 148.274 114.287C148.025 114.287 144.096 114.388 142.353 107.591C139.218 98.5655 136.782 98.5655 134.845 98.4648C132.907 98.3641 125.795 100.397 125.795 100.397C125.795 100.397 98.9839 108.188 97.349 108.134C95.7073 108.033 79.5935 113.643 75.7114 114.583C74.8165 114.784 70.9344 115.576 68.7007 115.676C67.7049 115.723 67.853 115.777 67.5569 115.777C67.4089 115.777 66.7092 115.925 66.5612 115.925C64.2736 116.274 62.6319 116.569 60.2973 116.616C60.0955 116.616 49.8553 117.757 49.6534 117.757C49.8015 119.494 55.6684 120.883 58.4538 121.675C58.8508 121.776 59.2477 121.877 59.6447 121.924C59.9407 121.97 60.2435 122.024 60.2435 122.024C60.5395 122.071 60.6943 122.071 61.0374 122.125C61.2863 122.125 61.5353 122.172 61.7842 122.172C62.4772 122.272 62.679 122.219 63.6277 122.219C63.9237 122.219 65.0204 122.219 65.4174 122.266C65.9624 122.366 67.16 122.366 67.7049 122.366C67.9068 122.366 68.1019 122.366 68.3037 122.413C72.233 122.762 79.1494 121.226 79.1494 121.226C78.1066 122.266 65.922 124.453 65.922 124.453C71.5938 127.433 88.7504 122.964 88.7504 122.964C87.0079 125.144 76.9157 127.822 76.9157 127.822C91.2869 128.962 98.3514 124.695 98.3514 124.695C98.3514 124.695 90.493 129.707 85.4671 130.103C88.6495 131.197 98.1967 129.56 103.922 128.023C100.989 129.412 96.9587 131.298 91.0918 134.572C81.6927 139.833 70.2549 142.611 70.2549 142.611C75.126 150.495 99.105 148.858 99.105 148.858C103.976 139.585 112.83 137.498 112.83 137.498C107.212 140.873 108.901 150.247 109.998 154.36C112.036 154.461 113.53 154.011 115.569 154.213C119.202 154.508 124.174 153.616 127.753 154.213L127.006 147.811C126.609 144.933 127.551 142.007 129.691 139.974C129.792 139.873 129.893 139.773 129.987 139.679C133.122 136.948 138.693 133.921 145.906 132.438C157.094 130.157 154.908 127.822 163.863 120.883C177.689 110.12 182.264 115.079 182.264 115.079C182.19 108.832 178.853 107.349 175.826 106.899Z" fill="white"/>
<path d="M171.345 107.396C170.248 107.644 170.302 108.785 170.302 108.785L174.083 107.846C174.083 107.846 172.441 107.148 171.345 107.396Z" fill="#A0A0A0"/>
<path d="M193.184 153.381H40.7858V155.166H193.184V153.381Z" fill="white"/>
<path d="M88.6831 193.414C88.6831 197.433 89.5308 201.298 91.0716 204.774L91.1187 204.378V204.828C91.1658 204.781 96.2388 192.622 112.057 184.737C121.705 180.127 127.275 177.994 140.752 177.994C135.726 170.257 126.973 165.144 117.029 165.144C101.366 165.184 88.6831 177.786 88.6831 193.414Z" fill="#005A92"/>
<path d="M137.226 268.561L136.432 268.165L134.192 272.976L134.986 273.372C135.282 273.52 135.585 273.573 135.834 273.473C136.083 273.372 136.284 273.224 136.379 272.929L137.771 269.95C137.919 269.654 137.919 269.406 137.818 269.158C137.724 268.91 137.522 268.708 137.226 268.561Z" fill="#BB9B32"/>
<path d="M72.9662 266.031C72.6702 265.984 72.4212 266.031 72.1723 266.232C71.9705 266.38 71.8224 266.628 71.7754 266.977L71.3246 270.205C71.2775 270.554 71.3246 270.802 71.4726 270.997C71.6206 271.198 71.8695 271.345 72.1656 271.392C72.4616 271.439 72.7644 271.392 72.9595 271.191C73.1613 271.044 73.3094 270.795 73.3565 270.446L73.8072 267.219C73.8543 266.87 73.8072 266.622 73.6592 266.427C73.5112 266.232 73.2623 266.085 72.9662 266.031Z" fill="#BB9B32"/>
<path d="M192.881 257.999C162.544 276.801 133.492 257.549 133.492 257.549L127.424 267.769L108.625 256.16L101.709 267.769C60.1291 243.411 24.5643 269.158 24.5643 269.158L35.6051 286.866C66.837 267.42 95.1421 287.557 95.1421 287.557L100.814 276.989L119.067 288L126.031 278.082C173.578 299.313 203.619 275.351 203.619 275.351L192.881 257.999ZM39.8909 278.337L38.5991 279.029L34.6699 271.882L35.9617 271.191L38.6462 269.701L39.3392 270.943L36.6547 272.432L37.5967 274.17L39.8842 272.929L40.5772 274.17L38.2897 275.412L39.2316 277.096L41.9161 275.606L42.6091 276.848L39.8909 278.337ZM47.1506 274.466C46.8545 274.962 46.3028 275.358 45.5089 275.606C45.0581 275.754 44.6612 275.808 44.318 275.754C43.9682 275.707 43.625 275.606 43.3223 275.405C43.0262 275.204 42.7773 274.955 42.5755 274.613L43.6721 273.62C43.874 273.915 44.1229 274.117 44.3651 274.164C44.6141 274.264 44.9101 274.264 45.2129 274.164C45.5089 274.063 45.7578 273.915 45.8588 273.714C45.9597 273.513 46.0068 273.318 45.9059 273.07L45.8049 272.721C45.7578 272.52 45.6569 272.372 45.5089 272.325C45.3609 272.224 45.2129 272.224 44.9639 272.177C44.7621 272.177 44.5131 272.177 44.318 272.177C44.0691 272.177 43.7731 272.177 43.5241 272.177C43.2752 272.177 42.9791 272.13 42.7302 272.03C42.4813 271.929 42.2323 271.782 42.0372 271.58C41.8421 271.379 41.6873 271.084 41.5393 270.688L41.4922 270.486C41.2904 269.795 41.3442 269.245 41.6402 268.702C41.9363 268.158 42.488 267.809 43.2348 267.608C43.8336 267.407 44.3315 267.406 44.7755 267.561C45.2263 267.708 45.6233 268.057 45.9193 268.554L44.8765 269.547C44.6746 269.299 44.4795 269.097 44.2306 269.004C43.9816 268.903 43.7798 268.903 43.5376 269.004C43.2415 269.104 43.0397 269.252 42.8917 269.399C42.7437 269.547 42.7437 269.795 42.7908 269.997L42.8917 270.245C42.9388 270.446 43.0935 270.641 43.2415 270.694C43.3896 270.795 43.5914 270.842 43.8403 270.842C44.0893 270.842 44.2911 270.842 44.5872 270.842C44.8361 270.842 45.085 270.842 45.3811 270.889C45.63 270.889 45.879 270.936 46.1279 271.037C46.3768 271.137 46.5787 271.285 46.7738 271.486C46.9756 271.688 47.1236 271.983 47.2246 272.332L47.3255 272.681C47.5004 273.372 47.4533 273.969 47.1506 274.466ZM52.4254 273.768L50.9856 273.915L50.2926 267.219L48.55 267.42L48.402 266.031L53.3741 265.534L53.5221 266.923L51.7324 267.125L52.4254 273.768ZM59.7388 272.285L59.241 271.043L56.9534 271.292L56.7516 272.634L55.2579 272.781L56.8525 264.4L57.8482 264.3L61.2796 272.09L59.7388 272.285ZM68.0413 270.399C68.0413 270.896 67.9404 271.292 67.7453 271.641C67.5434 271.99 67.2474 272.238 66.8504 272.432C66.4535 272.634 66.0027 272.681 65.4577 272.681H64.5158L63.076 272.634L63.3249 264.501L64.7647 264.548H65.7067C66.5006 264.548 67.1465 264.796 67.5502 265.239C68.0009 265.689 68.1961 266.232 68.149 266.977L68.0413 270.399ZM75.3548 267.319L74.904 270.694C74.8569 271.191 74.655 271.587 74.4061 271.936C74.1572 272.285 73.8073 272.533 73.4103 272.681C73.0134 272.828 72.5626 272.882 72.0176 272.781C71.5197 272.734 71.0757 272.533 70.7258 272.285C70.376 272.036 70.127 271.741 69.979 271.345C69.831 270.949 69.7772 270.5 69.831 270.003L70.2818 266.628C70.3289 266.132 70.5307 265.736 70.7797 265.387C71.0286 265.038 71.3785 264.79 71.7754 264.642C72.1724 264.494 72.6232 264.441 73.1681 264.541C73.666 264.588 74.1101 264.79 74.4599 265.038C74.8098 265.286 75.0587 265.581 75.2067 265.977C75.3548 266.373 75.4019 266.823 75.3548 267.319ZM86.3418 270.198L85.743 273.573C85.642 274.07 85.494 274.466 85.2451 274.761C84.9961 275.056 84.6463 275.304 84.2493 275.405C83.8524 275.553 83.3545 275.553 82.8095 275.452L81.5648 275.251L80.4681 275.049L81.8608 267.011L82.7086 267.158L83.0584 267.205L83.3074 267.252L84.2493 267.4C85.0432 267.547 85.642 267.849 85.9919 268.339C86.3417 268.863 86.4427 269.453 86.3418 270.198ZM94.3549 272.828L93.1102 276.002C92.9084 276.452 92.6594 276.848 92.3634 277.096C92.0135 277.344 91.6704 277.492 91.2196 277.546C90.7688 277.593 90.3248 277.499 89.874 277.344C89.3761 277.143 89.0263 276.895 88.7302 276.599C88.4342 276.251 88.2794 275.908 88.2323 275.506C88.1852 275.11 88.2323 274.66 88.4342 274.164L89.6789 270.99C89.8807 270.54 90.1297 270.144 90.4257 269.896C90.7756 269.648 91.1187 269.5 91.5695 269.446C92.0203 269.399 92.4643 269.493 92.9151 269.648C93.413 269.849 93.7628 270.097 94.0589 270.393C94.3549 270.741 94.5097 271.084 94.5568 271.486C94.6039 271.889 94.55 272.379 94.3549 272.828ZM110.368 270.648C110.267 270.648 110.166 270.601 110.072 270.601L109.722 274.419L108.282 273.627L108.679 270.003L108.08 269.654L106.439 272.58L105.194 271.889L109.17 264.796L109.917 265.192L111.606 266.132C112.003 266.333 112.299 266.628 112.501 266.923C112.702 267.219 112.797 267.568 112.797 267.916C112.797 268.265 112.696 268.661 112.447 269.057L112.198 269.453C111.996 269.849 111.7 270.144 111.404 270.346C111.068 270.547 110.718 270.648 110.368 270.648ZM111.512 275.606L115.939 268.762L117.183 269.554L112.756 276.398L111.512 275.606ZM121.658 275.559L119.969 278.539C119.72 278.988 119.424 279.283 119.074 279.532C118.724 279.733 118.327 279.881 117.883 279.827C117.432 279.827 117.035 279.679 116.591 279.431C116.141 279.183 115.797 278.888 115.596 278.492C115.347 278.143 115.246 277.747 115.246 277.304C115.246 276.908 115.394 276.459 115.643 276.016L117.331 273.036C117.58 272.587 117.876 272.291 118.226 272.043C118.576 271.842 118.973 271.748 119.417 271.748C119.868 271.748 120.265 271.896 120.709 272.144C121.153 272.392 121.503 272.687 121.705 273.083C121.954 273.432 122.055 273.828 122.055 274.271C122.055 274.714 121.906 275.157 121.658 275.559ZM139.164 270.493L137.724 273.566C137.522 274.016 137.273 274.358 136.93 274.56C136.634 274.808 136.237 274.908 135.834 274.955C135.383 274.955 134.939 274.855 134.441 274.606L133.048 273.962L132.301 273.613L135.733 266.226L136.48 266.574L137.872 267.219C138.619 267.568 139.063 268.01 139.312 268.561C139.514 269.205 139.467 269.802 139.164 270.493ZM146.081 271.486L143.093 270.741L142.595 272.627L145.132 273.271L144.782 274.613L142.246 273.969L141.748 275.855L144.735 276.599L144.385 277.988L140.557 276.995L140.012 276.848L142.05 268.963L143.147 269.259L146.43 270.104L146.081 271.486ZM154.437 277.74C154.437 278.431 154.188 278.982 153.791 279.377C153.394 279.773 152.849 279.921 152.149 279.921C151.752 279.921 151.355 279.82 151.006 279.626C150.656 279.424 150.407 279.176 150.212 278.881L151.308 277.988C151.409 278.136 151.557 278.237 151.705 278.337C151.853 278.438 152.001 278.485 152.203 278.485C152.452 278.485 152.654 278.438 152.802 278.284C152.95 278.136 153.004 277.935 153.004 277.639L153.152 271.788L154.645 271.835L154.437 277.74ZM160.405 280.464L160.109 279.176L157.821 279.129L157.424 280.418L155.93 280.371L158.669 272.332L159.665 272.379L161.952 280.565L160.405 280.464ZM169.306 280.914H167.812L165.525 275.559L165.478 280.867H164.132L164.233 272.734H165.727L168.014 278.243L168.061 272.788H169.454L169.306 280.914ZM172.737 279.968L172.138 280.015L171.54 271.929L172.979 271.828L176.061 271.58L176.162 272.969L173.08 273.217L173.228 275.204L175.866 275.002L175.967 276.391L173.329 276.593L173.477 278.525L176.559 278.277L176.66 279.666L172.737 279.968ZM178.207 279.424L177.413 271.339L178.907 271.191L179.701 279.277L178.207 279.424ZM185.669 277.988L183.731 274.915L183.038 275.016L183.536 278.337L182.096 278.586L180.851 270.547L181.45 270.446L183.59 270.097C184.04 270.05 184.437 270.05 184.781 270.198C185.13 270.299 185.426 270.547 185.628 270.795C185.877 271.09 185.978 271.439 186.079 271.889L186.18 272.385C186.227 272.835 186.227 273.231 186.079 273.573C185.931 273.922 185.729 274.217 185.433 274.419C185.332 274.466 185.285 274.519 185.184 274.566L187.27 277.794L185.669 277.988ZM193.029 274.815C192.733 275.11 192.336 275.358 191.838 275.506C191.34 275.653 190.896 275.707 190.446 275.653C190.049 275.606 189.652 275.405 189.349 275.11C189.053 274.815 188.804 274.466 188.656 273.969L187.613 270.741C187.465 270.245 187.411 269.802 187.512 269.399C187.613 268.997 187.761 268.655 188.111 268.306C188.407 268.01 188.804 267.762 189.302 267.615C189.8 267.467 190.244 267.413 190.695 267.467C191.145 267.514 191.489 267.715 191.791 268.01C192.087 268.306 192.336 268.655 192.484 269.151L193.527 272.379C193.675 272.875 193.729 273.271 193.628 273.721C193.527 274.17 193.332 274.513 193.029 274.815Z" fill="#BB9B32"/>
<path d="M83.96 268.809L83.0651 268.661L82.1703 273.922L83.0651 274.07C83.415 274.117 83.6639 274.07 83.9129 273.922C84.1147 273.774 84.2627 273.526 84.3098 273.231L84.8548 270.003C84.9019 269.708 84.8548 269.406 84.7068 269.212C84.552 269.01 84.3031 268.863 83.96 268.809Z" fill="#BB9B32"/>
<path d="M65.6057 265.93H64.7109L64.5629 271.238H65.4577C65.8076 271.238 66.0565 271.137 66.2516 270.99C66.4535 270.842 66.5477 270.594 66.5477 270.245L66.6486 266.97C66.6486 266.622 66.5477 266.373 66.3996 266.226C66.2516 266.085 65.9556 265.984 65.6057 265.93Z" fill="#BB9B32"/>
<path d="M119.969 273.473C119.72 273.325 119.424 273.271 119.175 273.372C118.926 273.473 118.724 273.62 118.529 273.916L116.934 276.74C116.786 277.036 116.733 277.284 116.786 277.586C116.833 277.834 117.035 278.036 117.284 278.183C117.533 278.331 117.829 278.384 118.078 278.284C118.327 278.183 118.529 278.036 118.724 277.74L120.319 274.915C120.467 274.62 120.52 274.372 120.467 274.124C120.413 273.875 120.218 273.62 119.969 273.473Z" fill="#BB9B32"/>
<path d="M92.4106 270.99C92.1145 270.889 91.8656 270.889 91.6167 270.99C91.3677 271.09 91.1659 271.285 91.0717 271.587L89.8808 274.613C89.7799 274.909 89.7328 275.211 89.8337 275.459C89.9346 275.707 90.1298 275.908 90.4325 276.002C90.7286 276.103 90.9775 276.103 91.2264 276.002C91.4754 275.902 91.6772 275.707 91.7714 275.358L92.9623 272.332C93.0632 272.037 93.1103 271.735 93.0094 271.486C92.9085 271.238 92.6595 271.09 92.4106 270.99Z" fill="#BB9B32"/>
<path d="M110.866 267.373L109.722 266.729L108.726 268.467L109.87 269.111C110.072 269.212 110.22 269.259 110.415 269.158C110.617 269.111 110.711 268.957 110.866 268.762L111.115 268.366C111.215 268.165 111.263 267.97 111.215 267.769C111.162 267.568 111.014 267.474 110.866 267.373Z" fill="#BB9B32"/>
<path d="M158.218 277.74L159.759 277.787L159.059 275.009L158.218 277.74Z" fill="#BB9B32"/>
<path d="M57.2024 269.903L58.6893 269.755L57.5994 267.071L57.2024 269.903Z" fill="#BB9B32"/>
<path d="M184.626 273.124C184.727 272.976 184.774 272.775 184.727 272.58L184.68 272.131C184.633 271.882 184.579 271.735 184.431 271.587C184.283 271.486 184.135 271.439 183.886 271.439L182.594 271.641L182.89 273.573L184.182 273.372C184.377 273.372 184.525 273.271 184.626 273.124Z" fill="#BB9B32"/>
<path d="M191.044 269.702C190.944 269.406 190.796 269.158 190.547 269.057C190.298 268.957 190.049 268.91 189.753 269.01C189.457 269.111 189.255 269.259 189.107 269.507C189.006 269.755 188.959 270.004 189.107 270.352L190.103 273.426C190.203 273.721 190.351 273.969 190.6 274.07C190.849 274.171 191.098 274.218 191.394 274.117C191.69 274.016 191.892 273.869 192.04 273.62C192.188 273.372 192.141 273.124 192.04 272.775L191.044 269.702Z" fill="#BB9B32"/>
<path d="M116.833 36.7112C72.5693 36.7112 36.7085 84.7761 36.7085 144.107C36.7085 203.439 72.5693 251.503 116.833 251.503C161.098 251.503 196.958 203.439 196.958 144.107C196.958 84.7761 161.098 36.7112 116.833 36.7112ZM119.572 246.491C119.424 246.491 119.276 246.491 119.121 246.491C118.374 246.538 117.58 246.538 116.833 246.538C116.087 246.538 115.293 246.538 114.546 246.491C114.398 246.491 114.25 246.491 114.095 246.491C74.7559 244.505 43.2684 199.614 43.2684 144.55C43.2684 89.4866 74.4599 45.0452 113.55 42.6631C113.651 42.6631 113.698 42.6631 113.799 42.6631C114.795 42.6161 115.791 42.5624 116.833 42.5624C117.432 42.5624 118.024 42.5624 118.623 42.6094C158.413 43.8978 190.446 89.0907 190.446 144.597C190.446 200.104 158.958 244.505 119.572 246.491Z" fill="#BB9B32" stroke="#BB9B32" stroke-miterlimit="10"/>
<path d="M120.911 153.575C120.662 150.348 120.117 142.363 120.016 140.383C120.016 140.383 116.584 141.229 115.885 145.241C115.387 147.972 115.434 151.488 115.488 153.475C115.986 153.475 116.484 153.428 116.981 153.428C118.327 153.381 119.619 153.428 120.911 153.575Z" fill="#A0A0A0"/>
<path d="M86.5436 198.171L80.6229 198.272V197.178L86.5436 197.077V198.171ZM84.1552 197.775H83.0585L83.0114 195.742C83.0114 195.541 82.9643 195.447 82.8095 195.346C82.6548 195.245 82.5135 195.198 82.3117 195.198C82.1098 195.198 81.9147 195.245 81.8138 195.346C81.7129 195.447 81.6119 195.594 81.6119 195.796L81.659 197.829H80.5624L80.5153 195.695C80.5153 195.346 80.5624 195.098 80.7171 194.849C80.8651 194.601 81.067 194.4 81.3159 194.252C81.5648 194.105 81.8609 194.051 82.2578 194.051C82.6548 194.051 82.9037 194.098 83.1998 194.252C83.4958 194.4 83.6976 194.548 83.8457 194.796C83.9937 195.044 84.0946 195.339 84.0946 195.641L84.1552 197.775ZM86.5436 195.098L84.0071 196.587L83.8053 195.4L86.5436 193.762V195.098Z" fill="#A0A0A0"/>
<path d="M87.7345 180.362L84.801 177.98L85.346 176.591L90.3181 178.577L89.9211 179.517L86.039 177.98L86.2879 178.027L88.9724 180.309L88.5755 181.248L85.0971 181.1L84.8481 180.953L88.7302 182.489L88.3333 183.429L83.3612 181.443L83.9062 180.054L87.7345 180.362Z" fill="#A0A0A0"/>
<path d="M91.9665 175.652L87.8354 171.881L88.5284 171.089L92.6595 174.86L91.9665 175.652ZM90.7218 173.867L89.975 173.176L91.1659 171.887C91.3139 171.74 91.3677 171.592 91.3139 171.438C91.2668 171.29 91.2129 171.089 91.0649 170.988C90.9169 170.888 90.7689 170.787 90.5671 170.787C90.3652 170.787 90.271 170.834 90.1163 170.988L88.9254 172.277L88.1786 171.586L89.3695 170.297C89.6184 170.049 89.8673 169.848 90.1634 169.754C90.4594 169.653 90.7083 169.653 91.0111 169.707C91.3071 169.754 91.5561 169.908 91.805 170.156C92.054 170.405 92.2558 170.653 92.3029 170.901C92.35 171.149 92.4038 171.445 92.3029 171.747C92.202 172.049 92.054 172.29 91.8521 172.538L90.7218 173.867Z" fill="#A0A0A0"/>
<path d="M99.374 168.908C98.8761 169.304 98.3782 169.505 97.8804 169.451C97.3825 169.404 96.9384 169.103 96.4877 168.606L94.2472 165.875L95.0411 165.231L97.2816 167.962C97.4834 168.21 97.7323 168.358 97.9275 168.358C98.1293 168.358 98.4253 168.311 98.6743 168.109C98.9232 167.908 99.0712 167.714 99.0712 167.465C99.0712 167.217 99.0241 166.969 98.8223 166.72L96.5818 163.989L97.3758 163.345L99.6162 166.076C100.013 166.573 100.215 167.069 100.161 167.566C100.121 168.062 99.8719 168.512 99.374 168.908Z" fill="#A0A0A0"/>
<path d="M104.252 165.882L102.314 161.171L103.209 160.822L105.147 165.533L104.252 165.882ZM104.649 165.68L104.299 164.835L105.793 164.238C105.994 164.137 106.143 164.037 106.19 163.889C106.237 163.741 106.237 163.594 106.19 163.392C106.089 163.191 105.988 163.097 105.84 163.043C105.692 162.99 105.49 162.996 105.295 163.09L103.801 163.688L103.451 162.842L104.945 162.245C105.147 162.198 105.241 162.044 105.342 161.95C105.443 161.849 105.389 161.654 105.342 161.5C105.295 161.352 105.194 161.252 105.046 161.205C104.898 161.158 104.75 161.205 104.548 161.252L103.054 161.849L102.704 161.004L104.245 160.359C104.696 160.158 105.093 160.111 105.436 160.259C105.786 160.406 106.035 160.655 106.183 161.05C106.284 161.346 106.284 161.594 106.23 161.842C106.176 162.091 105.981 162.292 105.685 162.486C106.035 162.386 106.331 162.439 106.58 162.533C106.829 162.634 107.031 162.882 107.125 163.178C107.327 163.574 107.327 163.969 107.125 164.271C106.923 164.573 106.627 164.869 106.183 165.063L104.649 165.68Z" fill="#A0A0A0"/>
<path d="M110.913 163.298V158.138H111.908V163.298H110.913ZM111.316 163.298V162.359H114.351V163.298H111.316Z" fill="#A0A0A0"/>
<path d="M118.926 157.4V162.909H117.829V157.4H118.926Z" fill="#A0A0A0"/>
<path d="M124.793 163.453C124.396 163.406 124.1 163.251 123.851 163.104C123.602 162.956 123.4 162.654 123.306 162.359C123.212 162.064 123.205 161.715 123.259 161.319L123.461 159.93C123.508 159.534 123.662 159.185 123.81 158.937C123.959 158.688 124.261 158.487 124.503 158.393C124.752 158.292 125.149 158.245 125.499 158.346C125.795 158.393 126.098 158.494 126.293 158.695C126.488 158.896 126.69 159.091 126.838 159.386C126.986 159.681 127.04 159.983 127.04 160.379L126.044 160.232C126.044 160.03 125.997 159.936 125.943 159.782C125.896 159.634 125.795 159.534 125.694 159.487C125.593 159.44 125.493 159.339 125.345 159.339C125.096 159.292 124.847 159.339 124.699 159.487C124.551 159.634 124.403 159.836 124.403 160.131L124.201 161.52C124.154 161.815 124.201 162.064 124.302 162.211C124.403 162.359 124.598 162.506 124.9 162.56C125.102 162.607 125.297 162.56 125.445 162.412C125.593 162.265 125.741 162.117 125.842 161.869L126.838 162.017C126.737 162.366 126.542 162.661 126.34 162.909C126.138 163.157 125.889 163.305 125.647 163.406C125.392 163.5 125.089 163.5 124.793 163.453Z" fill="#A0A0A0"/>
<path d="M129.819 165.036L133.896 160.97L134.495 161.218L134.145 166.976L133.149 166.526L133.499 162.654L130.814 165.479L129.819 165.036ZM131.111 164.687L131.507 163.795L134.091 164.936L133.694 165.828L131.111 164.687Z" fill="#A0A0A0"/>
<path d="M139.716 169.801L143.349 167.72L144.54 168.814L140.51 173.182L139.662 172.438L142.797 169.062L142.649 169.311L139.218 171.196L138.424 170.451L139.918 166.929L140.167 166.68L137.031 170.056L136.183 169.311L140.214 164.942L141.404 166.036L139.716 169.801Z" fill="#A0A0A0"/>
<path d="M151.45 190.83V193.011H150.205C149.707 193.011 149.31 192.91 148.96 192.716C148.61 192.514 148.361 192.266 148.166 191.924C147.964 191.575 147.87 191.179 147.87 190.736C147.87 190.287 147.971 189.844 148.166 189.548C148.368 189.2 148.617 188.951 148.96 188.757C149.31 188.555 149.707 188.461 150.104 188.461H151.947C152.445 188.461 152.842 188.562 153.192 188.757C153.542 188.958 153.791 189.206 153.986 189.548C154.188 189.897 154.282 190.293 154.282 190.736C154.282 191.132 154.181 191.481 154.033 191.776C153.885 192.071 153.636 192.32 153.387 192.568C153.138 192.816 152.788 192.917 152.392 193.018V191.729C152.593 191.682 152.741 191.528 152.889 191.333C153.037 191.132 153.037 190.937 153.037 190.736C153.037 190.441 152.937 190.139 152.741 189.991C152.54 189.79 152.244 189.696 151.947 189.696H150.104C149.808 189.696 149.559 189.797 149.411 189.991C149.263 190.193 149.162 190.441 149.115 190.783C149.068 191.132 149.216 191.38 149.411 191.528C149.613 191.676 149.862 191.823 150.205 191.823H150.306V190.884H151.45V190.83Z" fill="#A0A0A0"/>
<path d="M148.368 195.99L153.838 196.091V197.131L148.368 197.03V195.99ZM152.842 196.44H153.838L153.791 199.714H152.795L152.842 196.44ZM150.555 196.386H151.55L151.503 199.265H150.508L150.555 196.386ZM148.368 196.339H149.364L149.317 199.614H148.321L148.368 196.339Z" fill="#A0A0A0"/>
<path d="M145.334 208.142L149.808 211.269L149.209 212.115L144.735 208.988L145.334 208.142ZM148.812 210.974L149.606 211.518L147.715 214.195L146.921 213.651L148.812 210.974ZM146.975 209.733L147.769 210.276L146.128 212.658L145.334 212.115L146.975 209.733ZM145.132 208.444L145.926 208.988L144.035 211.665L143.241 211.122L145.132 208.444Z" fill="#A0A0A0"/>
<path d="M137.125 218.161L140.16 222.677L139.312 223.22L136.278 218.704L137.125 218.161ZM139.312 222.079L139.857 222.925L137.119 224.763L136.574 223.918L139.312 222.079ZM138.02 220.201L138.565 221.046L136.177 222.636L135.632 221.791L138.02 220.201ZM136.776 218.362L137.321 219.207L134.582 221.046L134.037 220.201L136.776 218.362Z" fill="#A0A0A0"/>
<path d="M115.643 224.81L115.69 230.266H114.647L114.6 224.81H115.643ZM115.293 229.273V230.266H112.009V229.273H115.293ZM115.246 227.045V228.038H112.359V227.045H115.246ZM115.246 224.81V225.803H111.962V224.81H115.246Z" fill="#A0A0A0"/>
<path d="M98.0823 218.758L94.1531 222.529L93.4601 221.784L97.3893 218.013L98.0823 218.758ZM94.6038 221.536L93.9109 222.227L91.6233 219.845L92.3163 219.154L94.6038 221.536ZM96.1917 219.999L95.4987 220.69L93.5072 218.61L94.2002 217.919L96.1917 219.999ZM97.7862 218.463L97.0932 219.154L94.8057 216.772L95.4987 216.081L97.7862 218.463Z" fill="#A0A0A0"/>
<path d="M147.823 201.694L152.795 204.271L152.297 205.21L147.325 202.633L147.823 201.694ZM149.66 203.083L150.555 203.533L149.66 205.27C149.559 205.418 149.559 205.566 149.66 205.72C149.761 205.868 149.862 205.968 150.01 206.069C150.158 206.17 150.36 206.17 150.508 206.17C150.656 206.17 150.757 206.069 150.857 205.921L151.752 204.183L152.647 204.633L151.705 206.418C151.557 206.713 151.355 206.914 151.16 207.062C150.958 207.21 150.662 207.263 150.413 207.263C150.164 207.263 149.815 207.163 149.519 207.015C149.223 206.867 148.974 206.666 148.826 206.418C148.678 206.17 148.577 205.921 148.577 205.673C148.577 205.425 148.624 205.13 148.778 204.881L149.66 203.083ZM146.477 204.277L149.263 204.177L148.913 205.27L145.926 205.418L146.477 204.277Z" fill="#A0A0A0"/>
<path d="M142.151 213.9L145.832 218.114L145.038 218.805L141.357 214.591L142.151 213.9ZM143.342 215.879L144.035 216.624L142.541 217.912C142.441 218.013 142.34 218.161 142.34 218.308C142.34 218.456 142.387 218.603 142.541 218.758C142.69 218.905 142.79 219.006 142.992 219.006C143.194 219.006 143.288 219.006 143.389 218.905L144.883 217.617L145.576 218.362L144.035 219.704C143.786 219.905 143.537 220.053 143.288 220.1C143.039 220.147 142.743 220.1 142.494 219.999C142.245 219.899 141.997 219.704 141.748 219.456C141.499 219.207 141.398 218.959 141.297 218.664C141.196 218.369 141.25 218.12 141.297 217.872C141.344 217.624 141.546 217.375 141.795 217.181L143.342 215.879ZM139.965 215.879L142.602 216.819L141.855 217.711L139.023 216.718L139.965 215.879Z" fill="#A0A0A0"/>
<path d="M123.003 224.314V229.917H121.96V224.314H123.003ZM122.606 226.548V227.541H120.668C120.52 227.541 120.372 227.588 120.271 227.743C120.171 227.89 120.123 228.038 120.123 228.239C120.123 228.441 120.171 228.588 120.271 228.736C120.372 228.883 120.52 228.937 120.668 228.937H122.606V229.93H120.568C120.271 229.93 119.969 229.883 119.774 229.729C119.572 229.581 119.377 229.38 119.229 229.132C119.081 228.883 119.027 228.588 119.027 228.239C119.027 227.89 119.074 227.595 119.229 227.347C119.383 227.099 119.525 226.897 119.774 226.75C120.023 226.602 120.271 226.548 120.568 226.548H122.606ZM120.016 224.314L121.409 226.743L120.265 226.944L118.724 224.368L120.016 224.314Z" fill="#A0A0A0"/>
<path d="M108.578 223.274C109.029 223.421 109.325 223.67 109.574 223.918C109.823 224.166 109.971 224.515 110.025 224.857C110.078 225.2 110.025 225.649 109.823 226.045L109.278 227.582C109.13 228.031 108.881 228.374 108.632 228.622C108.383 228.87 108.033 229.018 107.69 229.071C107.34 229.118 106.943 229.071 106.499 228.924C106.149 228.776 105.853 228.629 105.651 228.327C105.449 228.031 105.301 227.783 105.201 227.434C105.1 227.085 105.153 226.689 105.201 226.246L106.297 226.642C106.25 226.844 106.297 227.038 106.297 227.186C106.297 227.333 106.398 227.481 106.499 227.582C106.6 227.682 106.701 227.783 106.849 227.83C107.145 227.931 107.394 227.931 107.643 227.83C107.892 227.729 108.04 227.481 108.188 227.139L108.733 225.602C108.834 225.253 108.881 225.005 108.78 224.757C108.679 224.508 108.484 224.361 108.181 224.213C107.932 224.113 107.73 224.113 107.535 224.213C107.333 224.314 107.138 224.461 106.99 224.71L105.894 224.314C106.142 223.918 106.391 223.623 106.64 223.421C106.889 223.22 107.239 223.072 107.582 223.026C107.878 223.072 108.228 223.126 108.578 223.274Z" fill="#A0A0A0"/>
<path d="M101.514 225.803L101.016 226.696L97.4835 224.663L97.9814 223.77L101.514 225.803ZM102.509 221.093L99.9258 225.508L99.031 224.965L101.615 220.549L102.509 221.093Z" fill="#A0A0A0"/>
<path d="M86.5906 190.186L81.3158 189.938L81.3629 188.945L86.6377 189.193L86.5906 190.186ZM82.3183 189.642L81.3763 189.596L81.5244 186.422L82.4663 186.469L82.3183 189.642ZM84.5049 189.743L83.563 189.696L83.6639 186.918L84.6058 186.965L84.5049 189.743ZM86.6445 189.837L85.7025 189.79L85.8505 186.616L86.7925 186.663L86.6445 189.837Z" fill="#A0A0A0"/>
<path d="M100.269 204.62L99.4212 201.795H99.6701C99.6701 201.942 99.6701 202.043 99.623 202.191C99.5759 202.291 99.475 202.439 99.327 202.539C99.031 202.788 98.6811 202.935 98.2841 202.835C97.8872 202.788 97.5373 202.586 97.2413 202.191C96.8914 201.795 96.7434 201.399 96.7434 201.003C96.7434 200.607 96.9923 200.258 97.3422 199.909C97.6921 199.56 98.1361 199.459 98.5331 199.459C98.93 199.506 99.327 199.708 99.6769 200.151C99.8249 200.352 99.9258 200.547 100.074 200.748C100.175 200.996 100.276 201.244 100.37 201.493L101.117 203.922L100.269 204.62ZM98.8762 201.647C99.0242 201.546 99.0781 201.399 99.0781 201.251C99.0781 201.103 99.031 200.956 98.8762 200.755C98.7282 200.607 98.6273 200.506 98.4793 200.506C98.3312 200.506 98.1832 200.506 98.0285 200.654C97.8805 200.801 97.8266 200.902 97.8266 201.05C97.8266 201.197 97.8737 201.345 98.0285 201.499C98.1765 201.647 98.3245 201.748 98.4793 201.795C98.5802 201.795 98.7282 201.748 98.8762 201.647Z" fill="#A0A0A0"/>
<path d="M103.505 201.05L101.715 195.695L102.213 195.299L107.138 198.077L106.291 198.768L103.007 196.782L104.353 200.352L103.505 201.05ZM103.7 199.761L103.101 199.017L105.241 197.232L105.84 197.976L103.7 199.761Z" fill="#A0A0A0"/>
<path d="M107.932 197.279L105.349 193.212L106.095 192.716L108.679 196.782L107.932 197.279ZM108.282 197.03L107.784 196.286L109.076 195.44C109.278 195.34 109.372 195.192 109.372 195.044C109.372 194.897 109.372 194.749 109.271 194.595C109.17 194.447 109.022 194.346 108.874 194.346C108.726 194.346 108.578 194.346 108.376 194.494L107.084 195.339L106.586 194.595L107.878 193.749C108.026 193.649 108.127 193.548 108.174 193.4C108.221 193.253 108.174 193.105 108.073 192.951C107.972 192.803 107.872 192.749 107.724 192.702C107.576 192.702 107.427 192.702 107.273 192.85L105.981 193.695L105.483 192.951L106.775 192.105C107.172 191.857 107.522 191.756 107.872 191.81C108.221 191.857 108.47 192.058 108.719 192.407C108.867 192.655 108.921 192.904 108.867 193.152C108.813 193.4 108.665 193.602 108.47 193.843C108.766 193.696 109.015 193.695 109.318 193.742C109.567 193.789 109.816 193.991 109.964 194.239C110.213 194.588 110.26 194.93 110.166 195.279C110.072 195.628 109.816 195.923 109.419 196.172L108.282 197.03Z" fill="#A0A0A0"/>
<path d="M112.11 194.252L110.072 190.381L110.819 189.985L112.857 193.856L112.11 194.252ZM111.613 192.568L111.263 191.877L112.608 191.186C112.709 191.139 112.81 191.038 112.81 190.937C112.81 190.837 112.81 190.689 112.763 190.542C112.716 190.394 112.615 190.293 112.514 190.293C112.413 190.246 112.265 190.246 112.164 190.293L110.819 190.984L110.469 190.293L111.861 189.548C112.063 189.448 112.312 189.401 112.507 189.401C112.709 189.401 112.904 189.502 113.106 189.602C113.308 189.703 113.456 189.897 113.557 190.146C113.658 190.394 113.759 190.595 113.759 190.837C113.759 191.038 113.712 191.233 113.611 191.434C113.51 191.635 113.362 191.729 113.113 191.884L111.613 192.568ZM114.149 193.212L112.359 192.025L113.052 191.481L115.044 192.722L114.149 193.212Z" fill="#A0A0A0"/>
<path d="M115.091 187.509L116.981 191.723L116.134 192.071L114.243 187.857L115.091 187.509Z" fill="#A0A0A0"/>
<path d="M118.179 190.931L116.887 186.965L117.634 186.717L118.926 190.682L118.179 190.931ZM118.522 190.83L118.273 190.085L120.608 189.34L120.857 190.085L118.522 190.83Z" fill="#A0A0A0"/>
<path d="M123.4 184.234L124.645 188.696L123.797 188.945L122.801 185.475L122.304 185.824L122.055 184.932L122.653 184.435L123.4 184.234Z" fill="#A0A0A0"/>
<path d="M127.928 187.951C127.632 187.998 127.383 187.998 127.134 187.904C126.885 187.804 126.683 187.703 126.589 187.556C126.441 187.354 126.34 187.16 126.293 186.911V186.864C126.246 186.616 126.293 186.415 126.394 186.173C126.495 185.925 126.643 185.777 126.845 185.63C126.643 185.583 126.495 185.482 126.347 185.335C126.199 185.187 126.145 185.039 126.098 184.838V184.737C126.051 184.388 126.098 184.046 126.347 183.798C126.549 183.55 126.892 183.402 127.289 183.301C127.686 183.201 128.036 183.301 128.332 183.503C128.628 183.704 128.783 183.952 128.83 184.294V184.395C128.877 184.596 128.83 184.791 128.729 184.939C128.628 185.14 128.527 185.288 128.332 185.388C128.581 185.435 128.729 185.59 128.931 185.784C129.132 185.979 129.18 186.18 129.227 186.381V186.415C129.274 186.663 129.227 186.911 129.126 187.106C129.025 187.301 128.877 187.502 128.675 187.603C128.473 187.804 128.224 187.904 127.928 187.951ZM127.773 187.113C127.975 187.113 128.069 187.012 128.17 186.911C128.271 186.811 128.271 186.663 128.271 186.462V186.415C128.224 186.267 128.17 186.167 128.022 186.066C127.921 185.965 127.773 185.965 127.572 185.965C127.37 185.965 127.275 186.066 127.175 186.167C127.074 186.267 127.027 186.415 127.074 186.562V186.609C127.121 186.757 127.175 186.905 127.323 187.005C127.477 187.113 127.625 187.16 127.773 187.113ZM127.477 185.173C127.625 185.173 127.726 185.073 127.827 184.972C127.928 184.871 127.928 184.724 127.928 184.576V184.529C127.881 184.382 127.827 184.281 127.726 184.18C127.625 184.08 127.477 184.08 127.329 184.08C127.181 184.08 127.08 184.18 126.979 184.281C126.879 184.382 126.879 184.529 126.879 184.677V184.724C126.926 184.872 126.979 184.972 127.08 185.073C127.228 185.173 127.329 185.173 127.477 185.173Z" fill="#A0A0A0"/>
<path d="M130.963 187.16L132.005 184.778L132.153 184.878C132.106 184.979 132.005 185.08 131.904 185.127C131.804 185.173 131.656 185.173 131.508 185.173C131.158 185.173 130.862 185.026 130.613 184.778C130.364 184.529 130.263 184.18 130.263 183.784C130.263 183.335 130.364 182.939 130.613 182.691C130.862 182.442 131.211 182.295 131.656 182.295C132.106 182.295 132.449 182.442 132.698 182.691C132.947 182.939 133.048 183.288 133.048 183.784C133.048 183.986 133.001 184.18 132.947 184.429C132.9 184.677 132.799 184.878 132.698 185.12L131.851 187.153L130.963 187.16ZM131.703 184.335C131.851 184.335 131.999 184.288 132.052 184.187C132.153 184.086 132.201 183.939 132.201 183.737C132.201 183.536 132.153 183.442 132.052 183.342C131.952 183.241 131.851 183.194 131.703 183.194C131.555 183.194 131.407 183.241 131.353 183.342C131.252 183.442 131.205 183.59 131.205 183.737C131.205 183.939 131.252 184.086 131.353 184.187C131.407 184.281 131.555 184.335 131.703 184.335Z" fill="#A0A0A0"/>
<path d="M135.04 186.267V185.475L136.634 183.395C136.681 183.295 136.782 183.194 136.782 183.1C136.829 182.999 136.829 182.899 136.829 182.852C136.829 182.704 136.782 182.603 136.728 182.556C136.675 182.509 136.527 182.456 136.379 182.456C136.231 182.456 136.13 182.503 136.029 182.603C135.928 182.704 135.881 182.852 135.881 182.999H134.986C135.033 182.55 135.134 182.208 135.437 181.959C135.686 181.711 136.035 181.61 136.432 181.61C136.883 181.61 137.179 181.711 137.428 181.906C137.677 182.107 137.778 182.402 137.778 182.798C137.778 182.999 137.731 183.248 137.677 183.442C137.63 183.644 137.475 183.838 137.381 183.986L136.237 185.422H137.832V186.267H135.04Z" fill="#A0A0A0"/>
<path d="M96.9385 212.309L96.5886 212.853C101.763 218.557 108.578 221.583 116.881 221.583C131.555 221.536 143.739 210.424 145.132 196.084V196.037C145.233 195.145 145.28 194.252 145.28 193.306C145.28 191.521 145.078 189.783 144.782 188.099C144.681 188.099 131.602 188.549 121.308 193.306C110.967 198.171 102.213 204.425 96.9385 212.309Z" fill="#005A92"/>
<path d="M619.84 125.131C627.234 135.532 634.419 145.724 641.874 156.233C640.811 156.34 640.118 156.501 639.479 156.501C633.094 156.501 626.709 156.447 620.324 156.555C618.676 156.555 617.667 156.025 616.704 154.642C611.167 146.577 605.475 138.558 599.938 130.492C598.875 128.956 597.812 128.265 595.948 128.372C593.075 128.533 590.202 128.426 587.33 128.426C586.529 128.426 585.735 128.533 584.564 128.587C584.403 137.82 584.564 146.952 584.457 155.971C582.647 156.662 568.437 156.823 565.403 156.239C564.925 154.434 564.764 73.0736 565.241 68.665C565.88 68.6113 566.573 68.4503 567.266 68.4503C578.866 68.4503 590.525 68.3966 602.125 68.504C607.87 68.5577 613.569 69.3025 619.1 70.9465C629.104 73.9191 634.695 80.6561 636.128 90.9025C636.929 96.3713 636.821 101.78 635.597 107.195C633.787 114.999 629.32 120.729 621.973 124.071C621.387 124.332 620.802 124.655 619.84 125.131ZM584.665 111.275C585.358 111.382 585.782 111.489 586.152 111.489C591.582 111.489 596.957 111.597 602.333 111.382C604.675 111.275 607.016 110.744 609.304 110.161C612.816 109.208 614.995 106.712 615.958 103.263C616.859 100.075 616.913 96.7873 616.274 93.553C615.581 89.7349 613.347 87.2388 609.566 86.2255C608.079 85.8565 606.532 85.3733 604.991 85.3264C598.767 85.1116 592.591 85.058 586.367 85.011C585.836 85.011 585.304 85.2257 584.611 85.3264L584.665 111.275Z" fill="#005A92"/>
<path d="M449.289 68.551H512.244C512.775 70.5171 512.883 82.1928 512.405 85.4807C511.45 85.5881 510.434 85.7492 509.425 85.7492C496.917 85.7492 484.363 85.7492 471.855 85.7492C470.9 85.7492 469.938 85.7492 468.612 85.7492C468.558 92.0097 468.558 97.9012 468.612 104.169C473.187 104.276 477.5 104.222 481.813 104.222C486.125 104.222 490.485 104.222 494.852 104.222C499.218 104.222 503.524 104.222 508.153 104.222C508.422 109.691 508.261 114.945 508.261 120.514C507.198 120.568 506.236 120.676 505.334 120.676C494.213 120.676 483.091 120.676 471.916 120.676C470.96 120.676 469.998 120.676 468.673 120.676C468.511 126.99 468.565 132.989 468.673 139.196C473.887 139.565 478.893 139.303 483.838 139.357C488.844 139.41 493.843 139.357 498.794 139.357H514.013C514.283 145.087 514.121 150.556 514.121 155.971C512.096 156.555 453.77 156.769 449.41 156.239C449.303 155.441 449.094 154.595 449.094 153.743C449.094 126.144 449.094 98.5454 449.094 70.9466C449.074 70.2487 449.181 69.4569 449.289 68.551Z" fill="#005A92"/>
<path d="M428.425 81.3405C425.337 85.7423 422.249 90.2583 419.006 94.9822C418.104 94.2911 417.357 93.761 416.611 93.1772C412.143 89.6745 407.245 87.3393 401.553 86.5945C386.812 84.6821 373.988 94.8748 372.548 109.577C372.178 113.61 372.333 117.589 373.349 121.467C376.383 133.25 387.081 140.732 399.319 139.672C403.101 139.356 406.767 138.719 410.279 137.337C412.305 136.538 413.422 135.478 413.099 133.197C412.883 131.761 413.045 130.278 413.045 128.634C411.928 128.526 411.02 128.419 410.172 128.419C406.66 128.419 403.148 128.419 399.636 128.419C398.781 128.419 397.88 128.312 396.87 128.204V112.603C408.47 112.603 419.86 112.603 431.513 112.603C431.621 113.663 431.783 114.515 431.783 115.361C431.783 123.749 431.782 132.183 431.836 140.571C431.836 142.161 431.251 143.329 430.134 144.389C426.461 147.945 422.309 150.864 417.519 152.723C406.074 157.232 394.421 157.923 382.661 154.367C365.309 149.113 353.393 132.975 353.124 114.932C353.07 109.993 353.44 105.168 354.773 100.391C359.139 84.6284 373.45 72.1006 389.739 69.8191C403.255 67.9604 415.601 70.7183 426.461 79.267C426.992 79.6898 427.47 80.1192 427.947 80.542C428.055 80.7097 428.163 80.9177 428.425 81.3405Z" fill="#005A92"/>
<path d="M288.81 131.868V156.28H269.756C269.279 154.421 269.063 72.4765 269.595 68.598C270.234 68.5443 270.927 68.3833 271.62 68.3833C282.425 68.3833 293.224 68.3296 304.029 68.437C309.351 68.4907 314.619 69.2355 319.726 70.7721C330.424 73.9594 336.755 81.0655 338.726 91.9494C339.843 98.0556 339.789 104.155 338.41 110.208C336.492 118.595 331.648 124.541 323.723 127.936C317.546 130.586 311.006 131.492 304.352 131.754C300.255 131.915 296.158 131.808 292.06 131.808C291.105 131.922 290.196 131.922 288.81 131.868ZM288.972 114.784C289.665 114.891 290.089 114.999 290.459 114.999C295.357 114.999 300.248 115.052 305.2 114.891C307.118 114.838 309.082 114.415 310.946 113.885C314.404 112.986 316.746 110.651 318.024 107.302C319.511 103.484 319.726 99.552 319.033 95.5192C318.232 91.01 315.629 87.9837 311.262 86.6014C309.398 86.0176 307.481 85.4338 305.516 85.3801C300.564 85.1117 295.565 85.1117 290.56 85.0647C290.028 85.0647 289.497 85.2795 288.911 85.4338V114.784H288.972Z" fill="#005A92"/>
<path d="M684.47 85.2726C680.002 84.7962 675.69 85.1116 671.377 85.0579C667.118 85.0043 662.913 85.0579 658.762 85.0579C658.123 82.8302 658.069 70.9397 658.654 68.6046H704.049C704.102 69.6111 704.156 70.4633 704.156 71.3625C704.156 89.4061 704.21 107.456 704.102 125.446C704.102 128.949 703.786 132.452 703.093 135.901C700.913 147.1 692.772 154.958 681.436 156.756C668.874 158.776 657.968 155.219 648.757 146.51C648.333 146.141 648.01 145.657 647.479 145.027C650.722 140.517 653.971 136.055 657.376 131.331C658.277 132.183 659.078 132.868 659.825 133.559C663.391 136.746 667.327 139.081 672.171 139.612C678.24 140.303 682.976 136.961 684.039 130.962C684.356 129.264 684.463 127.567 684.463 125.869C684.517 113.288 684.463 100.713 684.463 88.1849C684.631 87.232 684.524 86.3865 684.47 85.2726Z" fill="#005A92"/>
<path d="M549.356 112.818C549.356 118.179 545.259 122.266 539.883 122.266C534.561 122.266 530.302 117.965 530.41 112.764C530.464 107.617 534.669 103.477 539.829 103.477C545.205 103.37 549.356 107.456 549.356 112.818Z" fill="#005A92"/>
<path d="M462.355 259.844C459.61 260.716 457.861 260.133 456.522 257.985C454.833 255.483 452.902 253.1 451.038 250.712C450.514 250.014 449.928 249.376 448.939 248.209C448.125 252.342 448.939 256.06 448.3 259.958H445.03C444.33 257.925 444.156 244.189 444.795 241.109C447.769 240.177 448.118 240.297 449.928 242.68C451.967 245.297 453.952 247.913 455.936 250.53C456.461 251.228 457.047 251.812 458.15 252.335C458.211 251.228 458.264 250.128 458.264 249.021C458.264 247.041 458.264 245.062 458.264 243.143C458.325 240.76 458.5 240.586 460.888 240.64C461.238 240.64 461.588 240.754 462.288 240.875C462.416 247.222 462.416 253.503 462.355 259.844Z" fill="#005A92"/>
<path d="M325.647 253.677C327.046 255.711 328.446 257.636 329.791 259.67C326.407 260.891 325.358 260.602 323.548 258.039C322.962 257.227 322.384 256.469 321.859 255.597C320.924 253.912 319.585 253.503 317.486 254.261C317.371 256.066 317.25 257.985 317.075 260.079H313.455C313.341 259.381 313.166 258.797 313.166 258.22C313.166 253.214 313.106 248.215 313.166 243.21C313.166 240.942 313.341 240.767 315.615 240.767C318.239 240.767 320.863 240.653 323.373 240.942C328.271 241.579 330.605 246.122 328.331 250.483C327.867 251.584 326.757 252.456 325.647 253.677ZM317.6 250.242C319.289 250.242 320.809 250.356 322.269 250.181C324.019 249.947 324.954 248.725 324.893 247.041C324.833 245.411 323.958 244.424 322.209 244.25C320.749 244.136 319.235 244.25 317.539 244.25L317.6 250.242Z" fill="#005A92"/>
<path d="M503.269 253.329C504.843 255.597 506.189 257.636 507.588 259.73C503.793 260.777 503.154 260.602 501.291 257.871C500.766 257.113 500.241 256.415 499.777 255.664C498.842 253.979 497.563 253.456 495.457 254.268C495.343 256.013 495.222 257.932 495.047 260.086H491.602C491.017 257.878 490.902 243.74 491.542 240.767C495.276 240.767 499.064 240.304 502.858 241.23C505.193 241.814 506.478 243.384 506.767 245.766C507.124 248.907 506.539 251.644 503.269 253.329ZM495.397 250.416C497.382 250.302 498.956 250.416 500.53 250.128C501.99 249.893 502.63 248.792 502.63 247.162C502.63 245.531 501.99 244.605 500.355 244.37C498.72 244.136 497.032 243.907 495.397 244.659V250.416Z" fill="#005A92"/>
<path d="M367.771 260.133V240.814C371.741 240.7 375.59 240.177 379.263 241.398C384.746 243.203 386.146 248.551 384.807 253.671C383.993 256.757 381.948 258.791 378.859 259.603C375.293 260.602 371.681 260.307 367.771 260.133ZM371.909 256.18C375.529 257.167 378.557 256.415 380.077 254.261C381.537 252.228 381.477 248.732 380.077 246.639C378.563 244.485 375.529 243.726 371.909 244.659V256.18Z" fill="#005A92"/>
<path d="M265.074 260.133V241.17C268.108 240.183 274.816 240.532 277.501 241.693C281.645 243.552 283.623 248.209 282.284 253.268C281.41 256.704 279.25 258.851 275.812 259.723C272.367 260.602 268.862 260.253 265.074 260.133ZM269.158 256.408C272.428 256.818 275.341 256.932 277.386 254.201C278.846 252.221 278.786 248.618 277.326 246.578C275.812 244.424 272.602 243.666 269.158 244.719V256.408Z" fill="#005A92"/>
<path d="M540.078 222.985C541.538 225.079 542.877 227.119 544.512 229.44C543.402 229.554 542.763 229.615 542.063 229.675C540.374 229.91 539.143 229.387 538.329 227.816C537.865 226.944 537.165 226.246 536.694 225.374C535.705 223.629 534.359 223.046 532.146 223.864C532.031 225.548 531.91 227.414 531.796 229.447H528.412C527.712 227.468 527.598 213.215 528.351 210.363C531.971 210.249 535.759 209.84 539.432 210.652C543.927 211.699 545.38 218.1 541.942 221.475C541.363 221.938 540.778 222.401 540.078 222.985ZM532.146 213.618V219.898C534.07 219.784 535.705 219.838 537.34 219.55C538.739 219.315 539.5 218.04 539.439 216.523C539.378 215.067 538.739 214.141 537.279 213.906C535.705 213.678 534.07 213.678 532.146 213.618Z" fill="#005A92"/>
<path d="M349.04 260.368C343.147 260.368 338.834 256.06 338.834 250.242C338.834 244.538 343.328 240.116 349.161 240.177C354.934 240.177 359.489 244.713 359.429 250.356C359.368 256.12 354.934 260.428 349.04 260.368ZM355.049 250.416C355.049 246.753 352.485 243.84 349.155 243.787C345.885 243.726 343.086 246.699 343.032 250.242C342.972 253.852 345.656 256.757 348.98 256.818C352.485 256.878 355.049 254.14 355.049 250.416Z" fill="#005A92"/>
<path d="M303.962 250.302C303.962 256.12 299.589 260.368 293.695 260.368C287.747 260.368 283.367 256.12 283.367 250.302C283.367 244.545 287.801 240.177 293.635 240.177C299.475 240.177 303.962 244.599 303.962 250.302ZM287.687 250.188C287.626 253.912 290.136 256.764 293.52 256.818C296.904 256.878 299.643 254.08 299.764 250.477C299.824 246.987 297.079 243.847 293.816 243.787C290.492 243.673 287.747 246.524 287.687 250.188Z" fill="#005A92"/>
<path d="M285.857 223.918C285.742 225.777 285.682 227.528 285.567 229.501H282.008C281.423 227.582 281.248 215.128 281.773 210.706C282.183 210.592 282.708 210.296 283.172 210.296C285.857 210.296 288.541 210.236 291.226 210.357C293.85 210.471 296.184 211.289 297.059 214.195C297.994 217.221 297.234 220.073 294.785 222.167C294.496 222.401 294.26 222.63 293.85 223.039C295.249 225.072 296.595 227.112 298.048 229.266C294.139 230.252 293.614 230.078 291.69 227.347C291.226 226.709 290.701 226.065 290.291 225.367C289.355 223.509 287.956 223.046 285.857 223.918ZM285.857 213.853V219.556C287.667 220.019 289.301 220.019 290.99 219.617C292.45 219.268 293.15 218.221 293.15 216.651C293.15 215.081 292.511 214.094 290.876 213.859C289.355 213.732 287.727 213.853 285.857 213.853Z" fill="#005A92"/>
<path d="M586.986 210.531C590.431 210.531 593.755 210.243 597.018 210.592C601.163 211.115 603.612 214.027 604.19 218.154C605.179 224.784 601.391 229.326 594.683 229.615C592.12 229.729 589.55 229.615 587.04 229.615C586.401 227.172 586.401 213.095 586.986 210.531ZM590.895 226.012C594.044 226.186 597.018 226.535 599.124 223.744C600.584 221.824 600.523 218.04 599.063 216.181C596.904 213.443 593.99 213.739 590.895 214.027V226.012Z" fill="#005A92"/>
<path d="M615.493 209.78C621.387 209.84 625.7 214.141 625.646 219.959C625.585 225.716 621.098 230.024 615.265 229.964C609.371 229.903 605.058 225.542 605.112 219.724C605.166 213.906 609.546 209.719 615.493 209.78ZM621.387 219.959C621.448 216.235 618.878 213.443 615.493 213.383C612.109 213.323 609.371 216.174 609.31 219.785C609.25 223.395 611.934 226.36 615.258 226.414C618.642 226.414 621.327 223.569 621.387 219.959Z" fill="#005A92"/>
<path d="M730.557 209.78C736.451 209.719 740.939 213.967 740.999 219.731C741.06 225.488 736.68 229.91 730.847 229.971C725.013 230.031 720.465 225.723 720.405 219.966C720.29 214.202 724.663 209.833 730.557 209.78ZM724.663 219.785C724.663 223.448 727.348 226.361 730.672 226.361C733.881 226.361 736.619 223.509 736.74 220.019C736.855 216.409 734.177 213.39 730.793 213.329C727.409 213.269 724.724 216.06 724.663 219.785Z" fill="#005A92"/>
<path d="M437.421 219.785C437.421 225.542 433.047 229.91 427.214 229.91C421.381 229.91 416.947 225.602 416.886 219.845C416.886 214.027 421.206 209.78 427.154 209.78C433.101 209.719 437.421 213.967 437.421 219.785ZM433.222 219.899C433.222 216.174 430.659 213.383 427.275 213.323C423.89 213.323 421.206 216.174 421.152 219.778C421.092 223.327 423.837 226.293 427.16 226.354C430.538 226.414 433.222 223.509 433.222 219.899Z" fill="#005A92"/>
<path d="M398.532 229.501V210.303C402.556 210.243 406.35 209.719 410.084 210.887C413.469 211.934 415.568 214.322 415.918 217.865C416.093 219.845 415.978 221.999 415.393 223.918C414.404 227.354 411.598 229.152 408.16 229.447C405.119 229.736 401.97 229.501 398.532 229.501ZM402.731 225.951C406.115 226.186 409.149 226.475 411.134 223.388C412.473 221.355 412.244 217.57 410.67 215.826C408.51 213.383 405.711 213.618 402.616 214.02C402.495 218.1 402.381 221.992 402.731 225.951Z" fill="#005A92"/>
<path d="M308.941 209.78C314.835 209.78 319.269 214.088 319.269 219.845C319.329 225.549 314.774 229.971 308.941 229.971C303.108 229.971 298.613 225.609 298.613 219.905C298.674 214.081 303.047 209.78 308.941 209.78ZM315.01 219.845C315.01 216.181 312.386 213.329 309.001 213.39C305.678 213.39 302.933 216.302 302.933 219.905C302.933 223.455 305.732 226.421 309.001 226.421C312.379 226.36 315.01 223.448 315.01 219.845Z" fill="#005A92"/>
<path d="M451.577 222.925C453.037 225.133 454.376 227.172 456.011 229.675C454.322 229.675 453.151 229.789 452.041 229.615C451.456 229.501 450.756 229.031 450.352 228.508C449.478 227.461 448.778 226.3 448.018 225.247C446.558 223.213 446.558 223.213 443.584 223.911C443.469 225.716 443.409 227.521 443.294 229.494H439.5V210.471C443.584 210.182 447.432 209.833 451.341 210.82C453.44 211.343 454.611 212.853 454.961 215.007C455.486 218.328 454.611 221.006 451.577 222.925ZM443.584 219.436C445.447 220.194 447.203 219.959 448.892 219.55C450.177 219.261 450.702 218.268 450.756 216.986C450.816 215.879 450.695 214.658 449.592 214.249C447.607 213.49 445.569 213.202 443.584 214.249V219.436Z" fill="#005A92"/>
<path d="M517.33 260.368C511.383 260.368 507.063 256.18 507.063 250.302C507.063 244.545 511.437 240.177 517.27 240.123C523.103 240.123 527.537 244.485 527.537 250.249C527.597 256.18 523.339 260.368 517.33 260.368ZM523.399 250.242C523.339 246.632 520.54 243.726 517.276 243.787C513.953 243.847 511.329 246.813 511.329 250.416C511.389 254.08 514.074 256.871 517.451 256.818C520.836 256.764 523.46 253.852 523.399 250.242Z" fill="#005A92"/>
<path d="M701.135 229.387C700.55 226.77 700.55 212.92 701.196 210.417C704.93 210.182 708.778 209.719 712.513 210.941C716.536 212.222 718.521 215.423 718.46 220.073C718.4 224.609 716.247 227.81 712.217 229.031C710.003 229.789 704.869 229.91 701.135 229.387ZM705.105 225.716C709.074 226.649 711.988 225.83 713.448 223.448C714.787 221.241 714.612 217.745 712.984 215.826C711.349 213.846 708.139 213.209 705.112 214.316V225.716H705.105Z" fill="#005A92"/>
<path d="M364.165 223.858C364.051 225.716 363.99 227.468 363.876 229.44H360.492C359.792 227.286 359.678 213.672 360.377 210.471C364.347 210.182 368.485 209.598 372.454 210.994C376.188 212.276 377.063 218.442 374.029 221.469C373.504 221.932 372.918 222.401 372.219 223.039C373.618 225.072 375.018 227.112 376.767 229.615C375.018 229.615 373.793 229.789 372.622 229.615C372.037 229.555 371.398 228.977 370.987 228.508C370.173 227.575 369.413 226.528 368.828 225.421C367.724 223.623 366.385 223.046 364.165 223.858ZM364.226 219.959C366.264 219.785 367.96 219.785 369.595 219.496C370.994 219.207 371.458 217.986 371.519 216.644C371.519 215.188 370.934 214.202 369.48 213.906C367.792 213.557 365.982 213.269 364.232 214.081V219.959H364.226Z" fill="#005A92"/>
<path d="M465.78 240.821H479.196V244.136C476.047 244.25 472.952 244.31 469.743 244.424V248.672H478.2V252.221H469.743V256.469H479.485C479.599 257.751 479.66 258.737 479.72 259.67C477.561 260.307 468.928 260.428 465.955 259.905C465.315 258.1 465.141 244.545 465.78 240.821Z" fill="#005A92"/>
<path d="M423.171 259.73C425.916 253.389 428.654 247.108 431.278 240.995C431.742 240.881 431.978 240.76 432.267 240.76C436.001 240.646 435.416 240.526 436.761 243.612C438.746 248.095 440.67 252.631 442.655 257.167C443.005 257.979 443.294 258.797 443.644 259.609C440.845 260.945 439.735 260.656 438.746 258.214C438.046 256.529 437.111 255.771 435.301 256.006C433.962 256.12 432.617 256.12 431.278 256.006C429.818 255.892 429.004 256.415 428.358 257.811C427.14 260.656 426.79 260.717 423.171 259.73ZM431.278 252.107C432.852 252.456 434.252 252.691 435.887 251.819C435.126 250.135 434.427 248.618 433.552 246.639C432.274 248.618 431.453 250.128 431.278 252.107Z" fill="#005A92"/>
<path d="M463.775 229.266C464.064 228.394 464.36 227.582 464.649 226.823C466.574 222.287 468.558 217.805 470.483 213.323C471.418 211.115 473.342 210.182 476.08 210.585C478.704 216.691 481.389 222.918 484.248 229.554C483.024 229.669 482.263 229.669 481.503 229.789C480.339 229.903 479.579 229.38 479.29 228.28C478.704 225.723 476.955 225.193 474.62 225.488C474.156 225.549 473.746 225.549 473.281 225.488C470.772 225.139 469.023 225.777 468.208 228.454C467.859 229.91 466.923 229.964 463.775 229.266ZM473.806 216.349C472.817 218.094 471.821 219.61 471.768 221.643H476.201C475.791 219.61 475.206 217.926 473.806 216.349Z" fill="#005A92"/>
<path d="M397.442 229.501H393.648C393.358 228.917 392.887 228.34 392.713 227.642C392.188 225.958 391.199 225.2 389.328 225.374C387.989 225.488 386.644 225.488 385.305 225.374C383.845 225.26 382.916 225.783 382.445 227.179C382.21 227.937 381.806 228.635 381.396 229.508H377.547C377.608 229.045 377.487 228.575 377.662 228.226C379.996 222.697 382.385 217.228 384.72 211.759C385.244 210.538 386.058 210.249 387.229 210.249C388.393 210.31 389.503 210.189 390.089 211.585C392.477 217.288 394.933 222.932 397.382 228.575C397.496 228.743 397.442 229.038 397.442 229.501ZM387.814 216.523C387.579 216.523 387.29 216.584 387.054 216.584C386.415 218.154 385.715 219.785 384.955 221.529H390.028C389.153 219.67 388.514 218.1 387.814 216.523Z" fill="#005A92"/>
<path d="M699.931 229.501C699.056 229.561 698.357 229.615 697.657 229.675C696.372 229.789 695.558 229.266 695.268 228.045C694.683 225.837 693.284 225.079 691.07 225.367C689.906 225.481 688.735 225.428 687.571 225.367C686.286 225.307 685.412 225.716 684.826 226.998C683.487 229.964 683.366 229.91 679.753 229.326C679.868 228.743 679.928 228.165 680.164 227.582C682.377 222.401 684.712 217.282 686.811 212.048C687.45 210.538 688.325 210.129 689.846 210.129C691.306 210.129 692.12 210.712 692.644 212.048C694.804 217.228 697.078 222.401 699.292 227.582C699.635 228.165 699.695 228.743 699.931 229.501ZM692.348 221.643C691.534 219.724 690.835 218.093 689.899 216.06C688.614 218.093 687.74 219.61 687.565 221.643H692.348Z" fill="#005A92"/>
<path d="M387.35 260.079V240.821C391.959 240.646 396.393 240.707 401.062 240.821C401.123 241.928 401.176 242.854 401.237 244.022C398.028 244.833 394.879 243.961 391.555 244.659V248.792H400.013V252.282H391.495V256.469C394.644 257.227 397.853 256.408 401.237 257.053V260.253L387.35 260.079Z" fill="#005A92"/>
<path d="M565.827 229.501H561.682C561.447 229.152 561.218 228.977 561.157 228.743C559.522 225.018 560.222 225.656 555.559 225.253C552.115 224.965 550.076 226.065 549.437 229.44H545.178C545.588 228.28 545.878 227.407 546.228 226.528C548.152 222.106 550.022 217.684 551.946 213.262C553.46 209.827 553.581 209.773 557.605 210.524C560.283 216.644 562.967 222.871 565.827 229.501ZM557.834 221.643C557.134 219.664 556.723 217.919 555.21 216.174C554.395 218.154 553.225 219.55 553.225 221.643H557.834Z" fill="#005A92"/>
<path d="M639.392 221.818V226.126H649.248V229.501H635.133C635.018 223.16 635.072 216.993 635.072 210.887C637.461 210.129 645.804 210.015 648.784 210.712V213.799C647.149 213.859 645.575 213.913 643.94 213.913C642.426 213.974 640.966 213.974 639.271 214.027V218.04C642.016 218.154 644.754 218.275 647.674 218.389V221.529C644.936 221.59 642.191 221.704 639.392 221.818Z" fill="#005A92"/>
<path d="M525.162 210.303C525.276 210.94 525.451 211.289 525.451 211.638C525.451 212.162 525.391 212.685 525.391 213.383C522.356 214.369 519.147 213.383 515.938 214.081V217.979C518.683 218.093 521.361 218.214 524.341 218.389C524.402 219.436 524.455 220.247 524.516 221.475C521.596 221.59 518.918 221.71 515.884 221.824C515.823 223.16 515.769 224.388 515.648 225.958C517.108 226.018 518.447 226.132 519.732 226.132C520.896 226.193 522.067 226.132 523.231 226.132C525.976 226.193 526.205 226.542 525.33 229.507H511.679C511.443 223.227 511.618 217 511.564 210.538C516.18 209.954 520.674 210.243 525.162 210.303Z" fill="#005A92"/>
<path d="M508.671 212.98C508.147 213.792 507.561 214.665 506.922 215.597C506.047 215.134 505.348 214.725 504.587 214.436C502.024 213.39 499.165 214.027 497.53 216.067C495.895 218.107 495.72 221.422 497.18 223.629C498.579 225.723 501.149 226.716 503.827 225.897C504.466 225.723 505.341 225.025 505.462 224.441C505.698 223.28 504.587 223.395 503.773 223.28C503.309 223.22 502.899 223.166 502.313 223.106C502.199 222.697 502.024 222.294 502.024 221.824C501.963 221.361 502.085 220.952 502.138 220.315C504.412 219.731 506.747 220.026 509.082 220.08C509.956 222.113 509.546 224.213 509.432 226.186C509.432 226.709 508.846 227.293 508.382 227.642C505.462 230.145 498.176 230.782 494.381 226.421C490.997 222.522 491.286 216.356 495.081 212.806C498.815 209.37 504.762 209.37 508.671 212.98Z" fill="#005A92"/>
<path d="M268.902 224.495C268.788 226.179 268.613 227.756 268.492 229.501H265.047C264.408 227.293 264.408 212.92 265.047 210.357C268.431 210.243 271.93 209.894 275.314 210.645C278.523 211.343 279.983 213.557 279.983 217.221C279.983 220.885 278.644 222.979 275.314 223.737C273.39 224.146 271.29 224.207 268.902 224.495ZM268.902 220.657C270.591 220.596 272.111 220.657 273.571 220.422C275.031 220.187 275.67 219.087 275.785 217.456C275.899 215.826 275.374 214.665 274.036 214.195C272.347 213.611 270.591 213.262 268.902 214.195V220.657Z" fill="#005A92"/>
<path d="M664.871 212.336C664.232 213.269 663.707 214.02 663.061 214.953C662.301 214.604 661.662 214.255 661.023 214.081C659.912 213.792 658.809 213.497 657.638 213.383C656.474 213.269 655.479 213.672 655.25 215.014C655.075 216.235 655.835 216.819 656.824 217.221C657.585 217.51 658.338 217.684 659.098 217.979C660.087 218.328 661.137 218.617 662.133 219.026C664.467 220.013 665.517 221.818 665.456 224.321C665.342 226.703 663.821 228.628 661.372 229.44C658.863 230.252 656.414 230.078 654.025 229.091C652.686 228.508 651.455 227.635 649.941 226.763C650.877 225.602 651.576 224.73 652.33 223.797C653.44 224.435 654.254 225.132 655.25 225.481C656.474 225.891 657.813 226.179 659.098 226.179C660.034 226.24 660.787 225.595 660.962 224.549C661.137 223.502 660.612 222.804 659.677 222.455C658.863 222.106 657.988 221.871 657.167 221.583C656.057 221.234 654.954 220.885 653.897 220.422C651.738 219.55 650.803 217.805 650.803 215.537C650.803 213.155 651.852 211.464 654.072 210.417C657.167 209.021 661.662 209.719 664.871 212.336Z" fill="#005A92"/>
<path d="M340.502 210.477H344.647C344.647 213.504 344.647 216.356 344.647 219.207C344.647 220.368 344.647 221.536 344.882 222.697C345.347 225.025 346.867 226.246 348.966 226.246C351.066 226.246 352.64 224.965 352.936 222.636C353.225 219.898 353.171 217.107 353.225 214.316C353.286 213.094 353.34 211.873 353.4 210.477H356.784C356.959 210.887 357.195 211.175 357.195 211.524C357.195 215.309 357.43 219.026 357.134 222.75C356.784 227.286 353.515 229.903 348.966 229.964C344.533 229.964 341.384 227.347 340.684 223.099C340.57 222.287 340.57 221.469 340.57 220.717C340.502 217.342 340.502 214.027 340.502 210.477Z" fill="#005A92"/>
<path d="M336.728 223.797C337.542 224.669 338.242 225.428 338.888 226.126C336.378 230.487 328.681 231.42 324.247 227.407C320.049 223.623 319.874 216.758 323.958 212.746C328.217 208.558 335.16 208.733 339.069 213.329C338.78 213.739 338.545 214.202 338.195 214.611C337.784 215.074 337.32 215.483 336.91 215.832C332.24 213.094 328.977 213.155 326.643 215.946C324.718 218.275 324.833 222.113 326.992 224.327C329.32 226.763 332.53 226.649 336.728 223.797Z" fill="#005A92"/>
<path d="M409.21 258.039C410.145 256.758 410.724 256.006 411.309 255.187C412.244 255.65 412.998 256.12 413.819 256.409C415.803 257.167 417.378 256.348 417.492 254.255C417.667 251.054 417.553 247.853 417.553 244.364C415.689 244.25 414.054 244.129 412.13 244.015V240.814H421.172C421.347 241.049 421.583 241.224 421.583 241.338C421.643 245.994 421.872 250.645 421.583 255.241C421.294 259.14 417.438 261.294 413.301 260.072C412.009 259.73 410.845 258.858 409.21 258.039Z" fill="#005A92"/>
<path d="M676.322 213.906V229.44H672.238V214.021C670.314 213.846 668.679 213.672 666.815 213.437C666.755 212.564 666.701 211.692 666.64 210.525C671.66 210.001 676.558 210.35 681.691 210.29V213.49C679.942 213.618 678.361 213.732 676.322 213.906Z" fill="#005A92"/>
<path d="M566.627 210.477H570.247C570.772 215.711 570.133 220.778 570.711 226.126H578.765V229.615C574.681 229.729 570.711 229.729 566.809 229.615C566.156 227.407 566.042 213.732 566.627 210.477Z" fill="#005A92"/>
<path d="M486.744 241.056V260.079H483.01C482.95 259.093 482.835 258.22 482.835 257.341C482.835 252.859 482.835 248.383 482.835 243.901C482.835 240.526 483.064 240.297 486.744 241.056Z" fill="#005A92"/>
<path d="M335.429 260.133H331.81C331.574 253.731 331.749 247.451 331.749 240.935H335.308C336.015 242.914 336.069 256.992 335.429 260.133Z" fill="#005A92"/>
<path d="M461.595 229.501H458.15C457.565 227.468 457.45 213.906 457.975 210.477H461.595V229.501Z" fill="#005A92"/>
<path d="M264.569 191.897H740.999C740.367 193.152 740.105 194.185 739.788 194.185C738.732 194.413 737.682 194.413 736.626 194.413C589.671 194.413 276.794 194.413 267.307 194.413C266.466 194.413 265.356 195.333 264.569 191.897Z" fill="#005A92"/>
</g>
<defs>
<clipPath id="clip0_108_324">
<rect width="741" height="288" fill="white"/>
</clipPath>
</defs>
</svg>
